<svg width="19" height="23" viewBox="0 0 19 23" fill="none" xmlns="http://www.w3.org/2000/svg">
<path d="M18.2382 9.00754C18.4825 8.5641 18.3212 8.00636 17.8779 7.76177C17.4347 7.51719 16.8773 7.67839 16.6331 8.12183L18.2382 9.00754ZM11.8511 18.703L12.6537 19.1459L11.8511 18.703ZM2.35414 13.2016L3.15673 13.6444L2.35414 13.2016ZM7.93871 3.06324L7.13612 2.62038L7.93871 3.06324ZM14.27 6.73087L15.0724 7.17417L15.0726 7.17372L14.27 6.73087ZM8.67679 16.8715L7.87444 16.4282L7.8742 16.4286L8.67679 16.8715ZM5.51115 15.0376L4.70882 14.5943L4.70855 14.5948L5.51115 15.0376ZM11.4752 6.12366C11.7198 5.68037 11.5588 5.12252 11.1157 4.87767C10.6726 4.63282 10.1151 4.79369 9.87058 5.23698L11.4752 6.12366ZM16.6331 8.12183L11.0485 18.2601L12.6537 19.1459L18.2382 9.00754L16.6331 8.12183ZM11.0485 18.2601C10.4856 19.282 9.53511 20.0234 8.40238 20.3221L8.87006 22.0954C10.4859 21.6693 11.8482 20.6081 12.6537 19.1459L11.0485 18.2601ZM8.40238 20.3221C7.26834 20.6211 6.03725 20.4532 4.98191 19.8418L4.0641 21.4288C5.5275 22.2766 7.25555 22.5211 8.87006 22.0954L8.40238 20.3221ZM4.98191 19.8418C3.92597 19.2301 3.14103 18.229 2.80054 17.062L1.04122 17.5753C1.5142 19.1964 2.6013 20.5814 4.0641 21.4288L4.98191 19.8418ZM2.80054 17.062C2.4603 15.8958 2.59333 14.6672 3.15673 13.6444L1.55154 12.7587C0.746633 14.2199 0.567972 15.9532 1.04122 17.5753L2.80054 17.062ZM3.15673 13.6444L8.74131 3.50609L7.13612 2.62038L1.55154 12.7587L3.15673 13.6444ZM8.74131 3.50609C9.07611 2.89829 9.64115 2.45731 10.3158 2.27942L9.8481 0.506061C8.69037 0.811342 7.71352 1.57215 7.13612 2.62038L8.74131 3.50609ZM10.3158 2.27942C10.9917 2.10118 11.7296 2.20037 12.3652 2.56853L13.283 0.981516C12.2394 0.376964 11.0045 0.201127 9.8481 0.506061L10.3158 2.27942ZM12.3652 2.56853C13.0013 2.93705 13.4743 3.54045 13.6792 4.2428L15.4385 3.7295C15.1011 2.57305 14.326 1.58572 13.283 0.981516L12.3652 2.56853ZM13.6792 4.2428C13.8838 4.94426 13.8028 5.67922 13.4674 6.28801L15.0726 7.17372C15.6495 6.12649 15.7762 4.88684 15.4385 3.7295L13.6792 4.2428ZM13.4677 6.28757L7.87444 16.4282L9.47914 17.3148L15.0724 7.17417L13.4677 6.28757ZM7.8742 16.4286C7.76745 16.6224 7.58788 16.7629 7.37134 16.82L7.83902 18.5934C8.53867 18.4089 9.13004 17.9485 9.47939 17.3143L7.8742 16.4286ZM7.37134 16.82C7.15349 16.8775 6.90877 16.847 6.69301 16.7221L5.7752 18.3091C6.39902 18.6704 7.14068 18.7775 7.83902 18.5934L7.37134 16.82ZM6.69301 16.7221C6.47665 16.5967 6.31573 16.391 6.24639 16.1534L4.48707 16.6667C4.68889 17.3584 5.15198 17.9481 5.7752 18.3091L6.69301 16.7221ZM6.24639 16.1534C6.17731 15.9166 6.20645 15.6753 6.31374 15.4805L4.70855 14.5948C4.35975 15.228 4.28499 15.974 4.48707 16.6667L6.24639 16.1534ZM6.31348 15.481L11.4752 6.12366L9.87058 5.23698L4.70882 14.5943L6.31348 15.481Z" fill="#605B6A"/>
</svg>
