<svg width="320" height="200" viewBox="0 0 320 200" fill="none" xmlns="http://www.w3.org/2000/svg">
<mask id="mask0_805_7617" style="mask-type:alpha" maskUnits="userSpaceOnUse" x="0" y="0" width="320" height="200">
<path d="M299 0H21C9.40202 0 0 9.40202 0 21V179C0 190.598 9.40202 200 21 200H299C310.598 200 320 190.598 320 179V21C320 9.40202 310.598 0 299 0Z" fill="white"/>
</mask>
<g mask="url(#mask0_805_7617)">
<path d="M299 0H21C9.40202 0 0 9.40202 0 21V179C0 190.598 9.40202 200 21 200H299C310.598 200 320 190.598 320 179V21C320 9.40202 310.598 0 299 0Z" fill="url(#paint0_linear_805_7617)"/>
<path style="mix-blend-mode:soft-light" opacity="0.5" fill-rule="evenodd" clip-rule="evenodd" d="M116.689 301.994L336.393 -41.7886L-39.095 192.173L116.689 301.994Z" fill="url(#paint1_linear_805_7617)"/>
<path style="mix-blend-mode:soft-light" opacity="0.5" fill-rule="evenodd" clip-rule="evenodd" d="M176.4 214.844L363.592 60.6423C348.734 37.3788 333.852 18.3221 318.946 3.47211C304.039 -11.3779 271.47 -30.6357 221.239 -54.3013L176.4 214.844Z" fill="url(#paint2_linear_805_7617)"/>
<path style="mix-blend-mode:soft-light" opacity="0.5" fill-rule="evenodd" clip-rule="evenodd" d="M360.093 229.773L259.29 -3.77094H-20.583L360.093 229.773Z" fill="url(#paint3_linear_805_7617)"/>
<path style="mix-blend-mode:multiply" opacity="0.5" fill-rule="evenodd" clip-rule="evenodd" d="M-4.8291 208.121L335.226 12.6141V208.121H-4.8291Z" fill="url(#paint4_linear_805_7617)"/>
</g>
<defs>
<linearGradient id="paint0_linear_805_7617" x1="335" y1="-2.18234e-07" x2="-5.74785" y2="12.057" gradientUnits="userSpaceOnUse">
<stop offset="0.133662" stop-color="#4A5055"/>
<stop offset="1" stop-color="#111318"/>
</linearGradient>
<linearGradient id="paint1_linear_805_7617" x1="-49.1754" y1="59.5884" x2="226.829" y2="308.222" gradientUnits="userSpaceOnUse">
<stop stop-color="#EEEEEE"/>
<stop offset="1" stop-color="#D8D8D8" stop-opacity="0"/>
</linearGradient>
<linearGradient id="paint2_linear_805_7617" x1="171.374" y1="25.066" x2="358.919" y2="132.648" gradientUnits="userSpaceOnUse">
<stop stop-color="#EEEEEE"/>
<stop offset="1" stop-color="#D8D8D8" stop-opacity="0"/>
</linearGradient>
<linearGradient id="paint3_linear_805_7617" x1="-30.8026" y1="65.0982" x2="149.757" y2="307.837" gradientUnits="userSpaceOnUse">
<stop stop-color="#EEEEEE"/>
<stop offset="1" stop-color="#D8D8D8" stop-opacity="0"/>
</linearGradient>
<linearGradient id="paint4_linear_805_7617" x1="344.355" y1="70.2666" x2="196.282" y2="282.686" gradientUnits="userSpaceOnUse">
<stop stop-color="#EEEEEE"/>
<stop offset="1" stop-color="#D8D8D8" stop-opacity="0"/>
</linearGradient>
</defs>
</svg>
