<svg width="28" height="28" viewBox="0 0 28 28" fill="none" xmlns="http://www.w3.org/2000/svg">
<path d="M14.0003 0.666992C6.64033 0.666992 0.666992 6.64033 0.666992 14.0003C0.666992 21.3603 6.64033 27.3337 14.0003 27.3337C21.3603 27.3337 27.3337 21.3603 27.3337 14.0003C27.3337 6.64033 21.3603 0.666992 14.0003 0.666992ZM14.0003 24.667C8.12033 24.667 3.33366 19.8803 3.33366 14.0003C3.33366 8.12033 8.12033 3.33366 14.0003 3.33366C19.8803 3.33366 24.667 8.12033 24.667 14.0003C24.667 19.8803 19.8803 24.667 14.0003 24.667ZM20.1203 8.10699L11.3337 16.8937L7.88033 13.4537L6.00033 15.3337L11.3337 20.667L22.0003 10.0003L20.1203 8.10699Z" fill="#1081E8"/>
</svg>
