<svg width="28" height="28" viewBox="0 0 28 28" fill="none" xmlns="http://www.w3.org/2000/svg">
<path d="M14.0003 0.666626C6.64033 0.666626 0.666992 6.63996 0.666992 14C0.666992 21.36 6.64033 27.3333 14.0003 27.3333C21.3603 27.3333 27.3337 21.36 27.3337 14C27.3337 6.63996 21.3603 0.666626 14.0003 0.666626ZM14.0003 24.6666C8.12033 24.6666 3.33366 19.88 3.33366 14C3.33366 8.11996 8.12033 3.33329 14.0003 3.33329C19.8803 3.33329 24.667 8.11996 24.667 14C24.667 19.88 19.8803 24.6666 14.0003 24.6666ZM20.1203 8.10663L11.3337 16.8933L7.88033 13.4533L6.00033 15.3333L11.3337 20.6666L22.0003 9.99996L20.1203 8.10663Z" fill="#95BF47"/>
</svg>
