<svg width="320" height="200" viewBox="0 0 320 200" fill="none" xmlns="http://www.w3.org/2000/svg">
<mask id="mask0_320_8829" style="mask-type:alpha" maskUnits="userSpaceOnUse" x="0" y="0" width="320" height="200">
<path d="M299 0H21C9.40202 0 0 9.40202 0 21V179C0 190.598 9.40202 200 21 200H299C310.598 200 320 190.598 320 179V21C320 9.40202 310.598 0 299 0Z" fill="white"/>
</mask>
<g mask="url(#mask0_320_8829)">
<path d="M299 0H21C9.40202 0 0 9.40202 0 21V179C0 190.598 9.40202 200 21 200H299C310.598 200 320 190.598 320 179V21C320 9.40202 310.598 0 299 0Z" fill="url(#paint0_linear_320_8829)"/>
<path style="mix-blend-mode:soft-light" opacity="0.5" fill-rule="evenodd" clip-rule="evenodd" d="M116.689 301.995L336.393 -41.7881L-39.095 192.174L116.689 301.995Z" fill="url(#paint1_linear_320_8829)"/>
<path style="mix-blend-mode:soft-light" opacity="0.5" fill-rule="evenodd" clip-rule="evenodd" d="M176.4 214.843L363.592 60.6418C348.734 37.3783 333.852 18.3216 318.946 3.47162C304.039 -11.3784 271.47 -30.6362 221.239 -54.3018L176.4 214.843Z" fill="url(#paint2_linear_320_8829)"/>
<path style="mix-blend-mode:soft-light" opacity="0.5" fill-rule="evenodd" clip-rule="evenodd" d="M360.093 229.773L259.29 -3.77094H-20.583L360.093 229.773Z" fill="url(#paint3_linear_320_8829)"/>
<path style="mix-blend-mode:multiply" opacity="0.5" fill-rule="evenodd" clip-rule="evenodd" d="M-4.8291 208.121L335.226 12.6141V208.121H-4.8291Z" fill="url(#paint4_linear_320_8829)"/>
</g>
<path d="M254.133 140.159C252.997 140.159 252.04 139.951 251.263 139.534C250.486 139.116 249.861 138.555 249.386 137.85C248.911 137.145 248.566 136.361 248.35 135.498C248.149 134.635 248.048 133.75 248.048 132.844C248.048 131.161 248.285 129.701 248.76 128.464C249.235 127.212 249.918 126.248 250.81 125.572C251.702 124.881 252.781 124.536 254.047 124.536C255.083 124.536 255.96 124.745 256.679 125.162C257.413 125.565 257.981 126.097 258.384 126.759C258.787 127.421 259.024 128.133 259.096 128.895H256.528C256.399 128.233 256.118 127.723 255.687 127.363C255.255 127.003 254.701 126.824 254.025 126.824C253.061 126.824 252.285 127.27 251.695 128.161C251.105 129.039 250.788 130.384 250.745 132.197C251.091 131.607 251.608 131.118 252.299 130.729C252.989 130.341 253.759 130.147 254.608 130.147C255.442 130.147 256.226 130.348 256.96 130.751C257.694 131.154 258.284 131.722 258.729 132.456C259.19 133.189 259.42 134.052 259.42 135.045C259.42 135.951 259.197 136.793 258.751 137.57C258.319 138.347 257.701 138.972 256.895 139.447C256.104 139.922 255.183 140.159 254.133 140.159ZM253.982 137.786C254.788 137.786 255.449 137.541 255.967 137.052C256.5 136.548 256.766 135.915 256.766 135.153C256.766 134.347 256.5 133.7 255.967 133.211C255.435 132.722 254.759 132.477 253.939 132.477C253.407 132.477 252.925 132.6 252.493 132.844C252.076 133.074 251.745 133.391 251.501 133.794C251.256 134.182 251.134 134.621 251.134 135.11C251.134 135.887 251.4 136.527 251.932 137.03C252.479 137.534 253.162 137.786 253.982 137.786ZM266.493 140.159C265.442 140.159 264.558 139.958 263.838 139.555C263.119 139.138 262.558 138.598 262.155 137.937C261.752 137.275 261.515 136.563 261.443 135.8H264.011C264.126 136.462 264.4 136.973 264.831 137.332C265.277 137.692 265.838 137.872 266.514 137.872C267.478 137.872 268.255 137.433 268.845 136.556C269.435 135.664 269.751 134.311 269.794 132.499C269.449 133.089 268.924 133.578 268.219 133.966C267.528 134.355 266.766 134.549 265.932 134.549C265.097 134.549 264.313 134.347 263.58 133.945C262.846 133.542 262.249 132.974 261.788 132.24C261.328 131.506 261.098 130.643 261.098 129.65C261.098 128.744 261.321 127.902 261.767 127.126C262.213 126.349 262.831 125.723 263.623 125.248C264.414 124.774 265.342 124.536 266.406 124.536C267.543 124.536 268.5 124.745 269.276 125.162C270.053 125.579 270.672 126.14 271.132 126.845C271.607 127.55 271.945 128.334 272.146 129.197C272.362 130.06 272.47 130.945 272.47 131.851C272.47 133.535 272.233 135.002 271.758 136.254C271.298 137.491 270.614 138.455 269.708 139.145C268.816 139.821 267.744 140.159 266.493 140.159ZM266.579 132.218C267.111 132.218 267.593 132.103 268.025 131.873C268.456 131.628 268.794 131.312 269.039 130.924C269.284 130.521 269.406 130.075 269.406 129.586C269.406 128.809 269.132 128.169 268.586 127.665C268.054 127.162 267.377 126.91 266.557 126.91C265.752 126.91 265.083 127.162 264.551 127.665C264.018 128.154 263.752 128.78 263.752 129.542C263.752 130.348 264.018 130.995 264.551 131.485C265.083 131.974 265.759 132.218 266.579 132.218ZM279.792 140.159C278.741 140.159 277.857 139.958 277.137 139.555C276.418 139.138 275.857 138.598 275.454 137.937C275.051 137.275 274.814 136.563 274.742 135.8H277.31C277.425 136.462 277.698 136.973 278.13 137.332C278.576 137.692 279.137 137.872 279.813 137.872C280.777 137.872 281.554 137.433 282.144 136.556C282.733 135.664 283.05 134.311 283.093 132.499C282.748 133.089 282.223 133.578 281.518 133.966C280.827 134.355 280.065 134.549 279.23 134.549C278.396 134.549 277.612 134.347 276.878 133.945C276.145 133.542 275.548 132.974 275.087 132.24C274.627 131.506 274.397 130.643 274.397 129.65C274.397 128.744 274.62 127.902 275.066 127.126C275.512 126.349 276.13 125.723 276.922 125.248C277.713 124.774 278.641 124.536 279.705 124.536C280.842 124.536 281.798 124.745 282.575 125.162C283.352 125.579 283.971 126.14 284.431 126.845C284.906 127.55 285.244 128.334 285.445 129.197C285.661 130.06 285.769 130.945 285.769 131.851C285.769 133.535 285.532 135.002 285.057 136.254C284.596 137.491 283.913 138.455 283.007 139.145C282.115 139.821 281.043 140.159 279.792 140.159ZM279.878 132.218C280.41 132.218 280.892 132.103 281.324 131.873C281.755 131.628 282.093 131.312 282.338 130.924C282.582 130.521 282.705 130.075 282.705 129.586C282.705 128.809 282.431 128.169 281.885 127.665C281.352 127.162 280.676 126.91 279.856 126.91C279.051 126.91 278.382 127.162 277.849 127.665C277.317 128.154 277.051 128.78 277.051 129.542C277.051 130.348 277.317 130.995 277.849 131.485C278.382 131.974 279.058 132.218 279.878 132.218ZM288.522 139.9L294.219 127.147H286.774V124.795H297.068V126.759L291.392 139.9H288.522Z" fill="white"/>
<path d="M174.79 139.9L178.674 134.549L174.79 129.197H177.746L180.465 132.995L183.162 129.197H186.14L182.235 134.549L186.14 139.9H183.162L180.465 136.102L177.746 139.9H174.79ZM186.508 139.9L190.392 134.549L186.508 129.197H189.465L192.183 132.995L194.881 129.197H197.859L193.953 134.549L197.859 139.9H194.881L192.183 136.102L189.465 139.9H186.508ZM198.227 139.9L202.111 134.549L198.227 129.197H201.183L203.902 132.995L206.599 129.197H209.577L205.671 134.549L209.577 139.9H206.599L203.902 136.102L201.183 139.9H198.227ZM209.945 139.9L213.829 134.549L209.945 129.197H212.901L215.62 132.995L218.318 129.197H221.296L217.39 134.549L221.296 139.9H218.318L215.62 136.102L212.901 139.9H209.945Z" fill="white"/>
<path d="M100.463 139.9L104.347 134.549L100.463 129.197H103.419L106.138 132.995L108.835 129.197H111.813L107.907 134.549L111.813 139.9H108.835L106.138 136.102L103.419 139.9H100.463ZM112.181 139.9L116.065 134.549L112.181 129.197H115.137L117.856 132.995L120.554 129.197H123.532L119.626 134.549L123.532 139.9H120.554L117.856 136.102L115.137 139.9H112.181ZM123.899 139.9L127.784 134.549L123.899 129.197H126.856L129.575 132.995L132.272 129.197H135.25L131.344 134.549L135.25 139.9H132.272L129.575 136.102L126.856 139.9H123.899ZM135.618 139.9L139.502 134.549L135.618 129.197H138.574L141.293 132.995L143.99 129.197H146.968L143.063 134.549L146.968 139.9H143.99L141.293 136.102L138.574 139.9H135.618Z" fill="white"/>
<path d="M24.9354 139.9L28.8196 134.549L24.9354 129.197H27.8917L30.6106 132.995L33.308 129.197H36.2859L32.3801 134.549L36.2859 139.9H33.308L30.6106 136.102L27.8917 139.9H24.9354ZM36.6537 139.9L40.538 134.549L36.6537 129.197H39.6101L42.329 132.995L45.0264 129.197H48.0043L44.0985 134.549L48.0043 139.9H45.0264L42.329 136.102L39.6101 139.9H36.6537ZM48.3721 139.9L52.2563 134.549L48.3721 129.197H51.3284L54.0474 132.995L56.7448 129.197H59.7226L55.8169 134.549L59.7226 139.9H56.7448L54.0474 136.102L51.3284 139.9H48.3721ZM60.0905 139.9L63.9747 134.549L60.0905 129.197H63.0468L65.7658 132.995L68.4631 129.197H71.441L67.5352 134.549L71.441 139.9H68.4631L65.7658 136.102L63.0468 139.9H60.0905Z" fill="white"/>
<path fill-rule="evenodd" clip-rule="evenodd" d="M280.706 42.7001C279.839 42.3479 278.464 41.959 276.763 41.959C272.422 41.959 269.365 44.3292 269.346 47.718C269.31 50.2182 271.535 51.6069 273.199 52.4405C274.9 53.2924 275.478 53.8484 275.478 54.6077C275.461 55.7739 274.103 56.3115 272.838 56.3115C271.083 56.3115 270.142 56.0343 268.713 55.3855L268.134 55.1074L267.519 59.015C268.55 59.4959 270.45 59.9227 272.422 59.9414C277.035 59.9414 280.038 57.6079 280.073 53.9966C280.091 52.015 278.916 50.4966 276.383 49.2558C274.846 48.4593 273.904 47.9223 273.904 47.1073C273.922 46.3665 274.7 45.6077 276.436 45.6077C277.865 45.5705 278.915 45.9222 279.711 46.2742L280.108 46.459L280.706 42.7001ZM264.751 59.9413H260.326L263.094 43.1577H267.519L264.751 59.9413ZM292.757 42.749H289.262C288.184 42.749 287.365 43.0648 286.9 44.199L280.188 60.2241H284.93C284.93 60.2241 285.71 58.0672 285.878 57.6027H291.679C291.809 58.2162 292.219 60.2241 292.219 60.2241H296.402L292.757 42.749ZM287.181 54.0337C287.553 53.0298 288.985 49.1442 288.985 49.1442C288.977 49.1592 289.036 48.9971 289.123 48.7556L289.123 48.7537L289.124 48.7516C289.254 48.392 289.446 47.8589 289.579 47.4712L289.895 48.977C289.895 48.977 290.751 53.16 290.936 54.0337H287.181ZM256.851 43.1578L252.523 54.6148L252.05 52.2912C251.942 51.9297 251.803 51.5641 251.637 51.1983L250.38 44.6407C250.124 43.514 249.337 43.195 248.368 43.1578H241.218L241.145 43.5143C242.981 43.9962 244.613 44.7019 246.03 45.583L249.904 59.9414H254.578L261.525 43.1578H256.851Z" fill="white"/>
<mask id="mask1_320_8829" style="mask-type:alpha" maskUnits="userSpaceOnUse" x="33" y="33" width="45" height="34">
<rect x="33" y="33.75" width="44.3333" height="33.25" rx="6.92708" fill="#FFBA49"/>
</mask>
<g mask="url(#mask1_320_8829)">
<rect x="33" y="33.75" width="44.3333" height="33.25" rx="6.92708" fill="#FFBA49"/>
<rect x="24.6875" y="36.521" width="27.7083" height="9.69792" rx="3.46354" stroke="#D29634" stroke-width="0.415625"/>
<rect x="24.6875" y="46.2188" width="27.7083" height="9.69792" rx="3.46354" stroke="#D29634" stroke-width="0.415625"/>
<rect x="24.6875" y="55.9165" width="27.7083" height="9.69792" rx="3.46354" stroke="#D29634" stroke-width="0.415625"/>
<rect x="59.3223" y="36.521" width="27.7083" height="9.69792" rx="3.46354" stroke="#D29634" stroke-width="0.415625"/>
<rect x="59.3223" y="46.2188" width="27.7083" height="9.69792" rx="3.46354" stroke="#D29634" stroke-width="0.415625"/>
<rect x="59.3223" y="55.9165" width="27.7083" height="9.69792" rx="3.46354" stroke="#D29634" stroke-width="0.415625"/>
</g>
<defs>
<linearGradient id="paint0_linear_320_8829" x1="335" y1="-2.18234e-07" x2="-5.74785" y2="12.057" gradientUnits="userSpaceOnUse">
<stop offset="0.133662" stop-color="#4A5055"/>
<stop offset="1" stop-color="#111318"/>
</linearGradient>
<linearGradient id="paint1_linear_320_8829" x1="-49.1754" y1="59.5889" x2="226.829" y2="308.223" gradientUnits="userSpaceOnUse">
<stop stop-color="#EEEEEE"/>
<stop offset="1" stop-color="#D8D8D8" stop-opacity="0"/>
</linearGradient>
<linearGradient id="paint2_linear_320_8829" x1="171.374" y1="25.0656" x2="358.919" y2="132.647" gradientUnits="userSpaceOnUse">
<stop stop-color="#EEEEEE"/>
<stop offset="1" stop-color="#D8D8D8" stop-opacity="0"/>
</linearGradient>
<linearGradient id="paint3_linear_320_8829" x1="-30.8026" y1="65.0982" x2="149.757" y2="307.837" gradientUnits="userSpaceOnUse">
<stop stop-color="#EEEEEE"/>
<stop offset="1" stop-color="#D8D8D8" stop-opacity="0"/>
</linearGradient>
<linearGradient id="paint4_linear_320_8829" x1="344.355" y1="70.2666" x2="196.282" y2="282.686" gradientUnits="userSpaceOnUse">
<stop stop-color="#EEEEEE"/>
<stop offset="1" stop-color="#D8D8D8" stop-opacity="0"/>
</linearGradient>
</defs>
</svg>
