<svg width="320" height="200" viewBox="0 0 320 200" fill="none" xmlns="http://www.w3.org/2000/svg">
<mask id="mask0_320_8893" style="mask-type:alpha" maskUnits="userSpaceOnUse" x="0" y="0" width="320" height="200">
<path d="M299 0H21C9.40202 0 0 9.40202 0 21V179C0 190.598 9.40202 200 21 200H299C310.598 200 320 190.598 320 179V21C320 9.40202 310.598 0 299 0Z" fill="white"/>
</mask>
<g mask="url(#mask0_320_8893)">
<path d="M299 0H21C9.40202 0 0 9.40202 0 21V179C0 190.598 9.40202 200 21 200H299C310.598 200 320 190.598 320 179V21C320 9.40202 310.598 0 299 0Z" fill="url(#paint0_linear_320_8893)"/>
<path style="mix-blend-mode:soft-light" opacity="0.5" fill-rule="evenodd" clip-rule="evenodd" d="M116.689 301.995L336.393 -41.7881L-39.095 192.174L116.689 301.995Z" fill="url(#paint1_linear_320_8893)"/>
<path style="mix-blend-mode:soft-light" opacity="0.5" fill-rule="evenodd" clip-rule="evenodd" d="M176.4 214.843L363.592 60.6418C348.734 37.3783 333.852 18.3216 318.946 3.47162C304.039 -11.3784 271.47 -30.6362 221.239 -54.3018L176.4 214.843Z" fill="url(#paint2_linear_320_8893)"/>
<path style="mix-blend-mode:soft-light" opacity="0.5" fill-rule="evenodd" clip-rule="evenodd" d="M360.093 229.773L259.29 -3.77094H-20.583L360.093 229.773Z" fill="url(#paint3_linear_320_8893)"/>
<path style="mix-blend-mode:multiply" opacity="0.5" fill-rule="evenodd" clip-rule="evenodd" d="M-4.8291 208.121L335.226 12.6141V208.121H-4.8291Z" fill="url(#paint4_linear_320_8893)"/>
</g>
<path d="M254.314 139.9V127.946L251.832 128.528V126.414L255.479 124.795H257.184V139.9H254.314ZM259.368 139.9V137.894C260.289 137.131 261.181 136.376 262.044 135.628C262.921 134.88 263.698 134.139 264.374 133.405C265.065 132.671 265.611 131.959 266.014 131.269C266.431 130.564 266.64 129.881 266.64 129.219C266.64 128.6 266.467 128.054 266.122 127.579C265.791 127.104 265.237 126.867 264.461 126.867C263.669 126.867 263.072 127.126 262.669 127.644C262.267 128.161 262.065 128.787 262.065 129.521H259.389C259.418 128.413 259.663 127.492 260.123 126.759C260.583 126.011 261.195 125.457 261.957 125.097C262.72 124.723 263.576 124.536 264.525 124.536C266.065 124.536 267.259 124.961 268.107 125.809C268.971 126.644 269.402 127.73 269.402 129.068C269.402 129.902 269.208 130.715 268.819 131.506C268.445 132.297 267.949 133.06 267.331 133.794C266.712 134.527 266.043 135.218 265.324 135.865C264.604 136.498 263.907 137.088 263.231 137.635H269.769V139.9H259.368ZM271.318 139.9V137.894C272.239 137.131 273.131 136.376 273.994 135.628C274.871 134.88 275.648 134.139 276.324 133.405C277.015 132.671 277.562 131.959 277.964 131.269C278.382 130.564 278.59 129.881 278.59 129.219C278.59 128.6 278.418 128.054 278.072 127.579C277.741 127.104 277.188 126.867 276.411 126.867C275.619 126.867 275.022 127.126 274.62 127.644C274.217 128.161 274.015 128.787 274.015 129.521H271.34C271.368 128.413 271.613 127.492 272.073 126.759C272.534 126.011 273.145 125.457 273.908 125.097C274.67 124.723 275.526 124.536 276.475 124.536C278.015 124.536 279.209 124.961 280.058 125.809C280.921 126.644 281.352 127.73 281.352 129.068C281.352 129.902 281.158 130.715 280.77 131.506C280.396 132.297 279.899 133.06 279.281 133.794C278.662 134.527 277.993 135.218 277.274 135.865C276.555 136.498 275.857 137.088 275.181 137.635H281.719V139.9H271.318ZM284.309 139.9L290.005 127.147H282.561V124.795H292.854V126.759L287.179 139.9H284.309Z" fill="white"/>
<path d="M174.791 139.9L178.675 134.549L174.791 129.197H177.747L180.466 132.995L183.163 129.197H186.141L182.236 134.549L186.141 139.9H183.163L180.466 136.102L177.747 139.9H174.791ZM186.509 139.9L190.393 134.549L186.509 129.197H189.466L192.184 132.995L194.882 129.197H197.86L193.954 134.549L197.86 139.9H194.882L192.184 136.102L189.466 139.9H186.509ZM198.228 139.9L202.112 134.549L198.228 129.197H201.184L203.903 132.995L206.6 129.197H209.578L205.672 134.549L209.578 139.9H206.6L203.903 136.102L201.184 139.9H198.228ZM209.946 139.9L213.83 134.549L209.946 129.197H212.902L215.621 132.995L218.319 129.197H221.296L217.391 134.549L221.296 139.9H218.319L215.621 136.102L212.902 139.9H209.946Z" fill="white"/>
<path d="M100.464 139.9L104.348 134.549L100.464 129.197H103.42L106.139 132.995L108.836 129.197H111.814L107.908 134.549L111.814 139.9H108.836L106.139 136.102L103.42 139.9H100.464ZM112.182 139.9L116.066 134.549L112.182 129.197H115.138L117.857 132.995L120.555 129.197H123.533L119.627 134.549L123.533 139.9H120.555L117.857 136.102L115.138 139.9H112.182ZM123.9 139.9L127.785 134.549L123.9 129.197H126.857L129.576 132.995L132.273 129.197H135.251L131.345 134.549L135.251 139.9H132.273L129.576 136.102L126.857 139.9H123.9ZM135.619 139.9L139.503 134.549L135.619 129.197H138.575L141.294 132.995L143.991 129.197H146.969L143.064 134.549L146.969 139.9H143.991L141.294 136.102L138.575 139.9H135.619Z" fill="white"/>
<path d="M24.9363 139.9L28.8205 134.549L24.9363 129.197H27.8927L30.6116 132.995L33.309 129.197H36.2869L32.3811 134.549L36.2869 139.9H33.309L30.6116 136.102L27.8927 139.9H24.9363ZM36.6547 139.9L40.5389 134.549L36.6547 129.197H39.611L42.33 132.995L45.0273 129.197H48.0052L44.0995 134.549L48.0052 139.9H45.0273L42.33 136.102L39.611 139.9H36.6547ZM48.3731 139.9L52.2573 134.549L48.3731 129.197H51.3294L54.0484 132.995L56.7457 129.197H59.7236L55.8178 134.549L59.7236 139.9H56.7457L54.0484 136.102L51.3294 139.9H48.3731ZM60.0915 139.9L63.9757 134.549L60.0915 129.197H63.0478L65.7667 132.995L68.4641 129.197H71.442L67.5362 134.549L71.442 139.9H68.4641L65.7667 136.102L63.0478 139.9H60.0915Z" fill="white"/>
<mask id="mask1_320_8893" style="mask-type:alpha" maskUnits="userSpaceOnUse" x="33" y="33" width="45" height="34">
<rect x="33.001" y="33.75" width="44.3333" height="33.25" rx="6.92708" fill="#FFBA49"/>
</mask>
<g mask="url(#mask1_320_8893)">
<rect x="33.001" y="33.75" width="44.3333" height="33.25" rx="6.92708" fill="#FFBA49"/>
<rect x="24.6885" y="36.521" width="27.7083" height="9.69792" rx="3.46354" stroke="#D29634" stroke-width="0.415625"/>
<rect x="24.6885" y="46.2188" width="27.7083" height="9.69792" rx="3.46354" stroke="#D29634" stroke-width="0.415625"/>
<rect x="24.6885" y="55.9165" width="27.7083" height="9.69792" rx="3.46354" stroke="#D29634" stroke-width="0.415625"/>
<rect x="59.3232" y="36.521" width="27.7083" height="9.69792" rx="3.46354" stroke="#D29634" stroke-width="0.415625"/>
<rect x="59.3232" y="46.2188" width="27.7083" height="9.69792" rx="3.46354" stroke="#D29634" stroke-width="0.415625"/>
<rect x="59.3232" y="55.9165" width="27.7083" height="9.69792" rx="3.46354" stroke="#D29634" stroke-width="0.415625"/>
</g>
<path d="M280.409 40.5669H269.593V59.4336H280.409V40.5669Z" fill="#FF5F00"/>
<path d="M270.28 50C270.28 46.1667 272.134 42.7667 274.984 40.5667C272.889 38.9667 270.246 38 267.361 38C260.529 38 255.001 43.3667 255.001 50C255.001 56.6333 260.529 62 267.361 62C270.246 62 272.889 61.0333 274.984 59.4333C272.134 57.2667 270.28 53.8333 270.28 50Z" fill="#EB001B"/>
<path d="M295.001 50C295.001 56.6333 289.473 62 282.64 62C279.756 62 277.112 61.0333 275.018 59.4333C277.902 57.2333 279.722 53.8333 279.722 50C279.722 46.1667 277.868 42.7667 275.018 40.5667C277.112 38.9667 279.756 38 282.64 38C289.473 38 295.001 43.4 295.001 50Z" fill="#F79E1B"/>
<defs>
<linearGradient id="paint0_linear_320_8893" x1="320" y1="200" x2="186.803" y2="-63.4983" gradientUnits="userSpaceOnUse">
<stop stop-color="#01ADEF"/>
<stop offset="1" stop-color="#0860BF"/>
</linearGradient>
<linearGradient id="paint1_linear_320_8893" x1="-49.1754" y1="59.5889" x2="226.829" y2="308.223" gradientUnits="userSpaceOnUse">
<stop stop-color="#EEEEEE"/>
<stop offset="1" stop-color="#D8D8D8" stop-opacity="0"/>
</linearGradient>
<linearGradient id="paint2_linear_320_8893" x1="171.374" y1="25.0656" x2="358.919" y2="132.647" gradientUnits="userSpaceOnUse">
<stop stop-color="#EEEEEE"/>
<stop offset="1" stop-color="#D8D8D8" stop-opacity="0"/>
</linearGradient>
<linearGradient id="paint3_linear_320_8893" x1="-30.8026" y1="65.0982" x2="149.757" y2="307.837" gradientUnits="userSpaceOnUse">
<stop stop-color="#EEEEEE"/>
<stop offset="1" stop-color="#D8D8D8" stop-opacity="0"/>
</linearGradient>
<linearGradient id="paint4_linear_320_8893" x1="344.355" y1="70.2666" x2="196.282" y2="282.686" gradientUnits="userSpaceOnUse">
<stop stop-color="#EEEEEE"/>
<stop offset="1" stop-color="#D8D8D8" stop-opacity="0"/>
</linearGradient>
</defs>
</svg>
