<svg width="28" height="26" viewBox="0 0 28 26" fill="none" xmlns="http://www.w3.org/2000/svg">
<mask id="path-1-outside-1_268_2730" maskUnits="userSpaceOnUse" x="0" y="0" width="24" height="26" fill="black">
<rect fill="white" width="24" height="26"/>
<path d="M21.0828 10.3143C21.5518 9.96318 21.8823 9.45828 22.0165 8.88801C22.1508 8.31773 22.0801 7.71841 21.817 7.19496C21.5539 6.67151 21.1151 6.25728 20.5773 6.02477C20.0396 5.79226 19.4372 5.7563 18.8756 5.92317L16.5237 1.24435C16.4928 1.18266 16.4478 1.12905 16.3925 1.0878C16.3372 1.04655 16.2729 1.01881 16.205 1.00678C16.137 0.99475 16.0672 0.99877 16.001 1.01852C15.9349 1.03827 15.8743 1.07319 15.824 1.12052L7.32335 9.11538L2.38735 11.5962C1.79064 11.8971 1.33763 12.4223 1.12772 13.0568C0.917807 13.6912 0.968141 14.383 1.26767 14.9804L3.3093 19.042C3.45758 19.338 3.66283 19.6019 3.91328 19.8185C4.16374 20.0351 4.45448 20.2001 4.76883 20.3041C5.08319 20.4082 5.41498 20.4491 5.74519 20.4247C6.07541 20.4002 6.39755 20.3108 6.69315 20.1616L6.94093 20.0371L8.47904 23.0975C8.70944 23.5572 9.05022 23.9527 9.47088 24.2485C9.89155 24.5443 10.379 24.7312 10.8896 24.7925L12.5779 24.9968C12.5957 24.9989 12.6136 25 12.6316 25C12.7162 25 12.7991 24.9757 12.8705 24.93C12.9418 24.8843 12.9985 24.8191 13.0339 24.7422L13.6733 23.3564C13.7189 23.2575 13.7264 23.1452 13.6945 23.041C13.6626 22.9368 13.5935 22.848 13.5004 22.7915L12.1735 21.9876C12.0087 21.8877 11.8798 21.7382 11.8049 21.5607C11.73 21.3831 11.713 21.1865 11.7564 20.9987L12.0104 19.9045C12.0246 19.8432 12.0257 19.7797 12.0135 19.718C12.0013 19.6563 11.9761 19.5979 11.9396 19.5467C11.9031 19.4955 11.8561 19.4527 11.8018 19.4211C11.7474 19.3894 11.687 19.3697 11.6245 19.3632L10.2138 19.2166L9.88303 18.5584L11.6289 17.6809L23.1165 15.6287C23.1845 15.6166 23.2487 15.5888 23.3041 15.5475C23.3594 15.5062 23.4043 15.4525 23.4352 15.3908C23.4661 15.329 23.4822 15.2609 23.4821 15.1918C23.482 15.1228 23.4657 15.0547 23.4346 14.9931L21.0828 10.3143ZM21.0244 7.59205C21.1814 7.90548 21.2322 8.26144 21.1693 8.6063C21.1064 8.95115 20.9331 9.2662 20.6755 9.50397L19.2828 6.73332C19.6269 6.66836 19.9829 6.71699 20.297 6.87187C20.6111 7.02676 20.8664 7.27951 21.0244 7.59207V7.59205ZM10.1575 15.5966L7.54928 16.9077L7.51263 16.8956L7.22601 16.3252C7.2227 16.3186 7.22212 16.311 7.22439 16.3041C7.22666 16.2971 7.23159 16.2913 7.23812 16.2879L9.84608 14.9772L10.1575 15.5966ZM6.29482 19.3696C5.90767 19.5641 5.45911 19.5969 5.04778 19.4608C4.63645 19.3246 4.29602 19.0307 4.10136 18.6436L2.05974 14.582C1.86573 14.1947 1.8332 13.7463 1.96929 13.3351C2.10537 12.9239 2.39896 12.5834 2.78569 12.3883L7.38303 10.0776L9.44782 14.185L6.83979 15.4959C6.62343 15.6051 6.45919 15.7956 6.38306 16.0256C6.30693 16.2557 6.32513 16.5066 6.43367 16.7232L6.7203 17.2936C6.77393 17.4011 6.84837 17.4969 6.93929 17.5754C7.03021 17.654 7.13581 17.7137 7.24997 17.7511C7.34289 17.782 7.44014 17.7978 7.53805 17.7979C7.68038 17.7977 7.8207 17.7641 7.94764 17.6997L10.5557 16.3889L10.8924 17.0587L6.29482 19.3696ZM9.53059 19.8317C9.56394 19.8982 9.6135 19.9552 9.6747 19.9975C9.73589 20.0397 9.80674 20.0659 9.88072 20.0736L11.033 20.1934L10.8924 20.7987C10.807 21.1685 10.8404 21.5558 10.9879 21.9054C11.1354 22.2551 11.3895 22.5493 11.7139 22.7462L12.702 23.3449L12.364 24.0778L10.9963 23.9121C10.6309 23.8682 10.2821 23.7345 9.98102 23.5228C9.67995 23.3111 9.43603 23.0282 9.27107 22.6992L7.73309 19.639L9.09083 18.9566L9.53059 19.8317ZM21.356 15.0424L17.9465 8.25914C17.8937 8.1541 17.8013 8.07436 17.6897 8.03744C17.578 8.00052 17.4563 8.00945 17.3513 8.06228C17.2463 8.1151 17.1665 8.20748 17.1296 8.3191C17.0927 8.43073 17.1016 8.55244 17.1544 8.65747L20.4454 15.2051L11.7353 16.7611L8.12486 9.57885L14.5704 3.51683L15.9121 6.18635C15.9382 6.23847 15.9743 6.28494 16.0183 6.32309C16.0624 6.36124 16.1136 6.39033 16.1689 6.40869C16.2242 6.42704 16.2826 6.43431 16.3407 6.43007C16.3989 6.42583 16.4556 6.41017 16.5077 6.38398C16.5597 6.3578 16.6061 6.3216 16.6442 6.27746C16.6823 6.23332 16.7113 6.1821 16.7295 6.12674C16.7478 6.07139 16.7549 6.01297 16.7505 5.95485C16.7462 5.89673 16.7304 5.84003 16.7041 5.78801L15.2442 2.88314L15.9984 2.17382L19.187 8.51706L20.1102 10.3539L20.1104 10.3542L22.3755 14.8603L21.356 15.0424Z"/>
</mask>
<path d="M21.0828 10.3143C21.5518 9.96318 21.8823 9.45828 22.0165 8.88801C22.1508 8.31773 22.0801 7.71841 21.817 7.19496C21.5539 6.67151 21.1151 6.25728 20.5773 6.02477C20.0396 5.79226 19.4372 5.7563 18.8756 5.92317L16.5237 1.24435C16.4928 1.18266 16.4478 1.12905 16.3925 1.0878C16.3372 1.04655 16.2729 1.01881 16.205 1.00678C16.137 0.99475 16.0672 0.99877 16.001 1.01852C15.9349 1.03827 15.8743 1.07319 15.824 1.12052L7.32335 9.11538L2.38735 11.5962C1.79064 11.8971 1.33763 12.4223 1.12772 13.0568C0.917807 13.6912 0.968141 14.383 1.26767 14.9804L3.3093 19.042C3.45758 19.338 3.66283 19.6019 3.91328 19.8185C4.16374 20.0351 4.45448 20.2001 4.76883 20.3041C5.08319 20.4082 5.41498 20.4491 5.74519 20.4247C6.07541 20.4002 6.39755 20.3108 6.69315 20.1616L6.94093 20.0371L8.47904 23.0975C8.70944 23.5572 9.05022 23.9527 9.47088 24.2485C9.89155 24.5443 10.379 24.7312 10.8896 24.7925L12.5779 24.9968C12.5957 24.9989 12.6136 25 12.6316 25C12.7162 25 12.7991 24.9757 12.8705 24.93C12.9418 24.8843 12.9985 24.8191 13.0339 24.7422L13.6733 23.3564C13.7189 23.2575 13.7264 23.1452 13.6945 23.041C13.6626 22.9368 13.5935 22.848 13.5004 22.7915L12.1735 21.9876C12.0087 21.8877 11.8798 21.7382 11.8049 21.5607C11.73 21.3831 11.713 21.1865 11.7564 20.9987L12.0104 19.9045C12.0246 19.8432 12.0257 19.7797 12.0135 19.718C12.0013 19.6563 11.9761 19.5979 11.9396 19.5467C11.9031 19.4955 11.8561 19.4527 11.8018 19.4211C11.7474 19.3894 11.687 19.3697 11.6245 19.3632L10.2138 19.2166L9.88303 18.5584L11.6289 17.6809L23.1165 15.6287C23.1845 15.6166 23.2487 15.5888 23.3041 15.5475C23.3594 15.5062 23.4043 15.4525 23.4352 15.3908C23.4661 15.329 23.4822 15.2609 23.4821 15.1918C23.482 15.1228 23.4657 15.0547 23.4346 14.9931L21.0828 10.3143ZM21.0244 7.59205C21.1814 7.90548 21.2322 8.26144 21.1693 8.6063C21.1064 8.95115 20.9331 9.2662 20.6755 9.50397L19.2828 6.73332C19.6269 6.66836 19.9829 6.71699 20.297 6.87187C20.6111 7.02676 20.8664 7.27951 21.0244 7.59207V7.59205ZM10.1575 15.5966L7.54928 16.9077L7.51263 16.8956L7.22601 16.3252C7.2227 16.3186 7.22212 16.311 7.22439 16.3041C7.22666 16.2971 7.23159 16.2913 7.23812 16.2879L9.84608 14.9772L10.1575 15.5966ZM6.29482 19.3696C5.90767 19.5641 5.45911 19.5969 5.04778 19.4608C4.63645 19.3246 4.29602 19.0307 4.10136 18.6436L2.05974 14.582C1.86573 14.1947 1.8332 13.7463 1.96929 13.3351C2.10537 12.9239 2.39896 12.5834 2.78569 12.3883L7.38303 10.0776L9.44782 14.185L6.83979 15.4959C6.62343 15.6051 6.45919 15.7956 6.38306 16.0256C6.30693 16.2557 6.32513 16.5066 6.43367 16.7232L6.7203 17.2936C6.77393 17.4011 6.84837 17.4969 6.93929 17.5754C7.03021 17.654 7.13581 17.7137 7.24997 17.7511C7.34289 17.782 7.44014 17.7978 7.53805 17.7979C7.68038 17.7977 7.8207 17.7641 7.94764 17.6997L10.5557 16.3889L10.8924 17.0587L6.29482 19.3696ZM9.53059 19.8317C9.56394 19.8982 9.6135 19.9552 9.6747 19.9975C9.73589 20.0397 9.80674 20.0659 9.88072 20.0736L11.033 20.1934L10.8924 20.7987C10.807 21.1685 10.8404 21.5558 10.9879 21.9054C11.1354 22.2551 11.3895 22.5493 11.7139 22.7462L12.702 23.3449L12.364 24.0778L10.9963 23.9121C10.6309 23.8682 10.2821 23.7345 9.98102 23.5228C9.67995 23.3111 9.43603 23.0282 9.27107 22.6992L7.73309 19.639L9.09083 18.9566L9.53059 19.8317ZM21.356 15.0424L17.9465 8.25914C17.8937 8.1541 17.8013 8.07436 17.6897 8.03744C17.578 8.00052 17.4563 8.00945 17.3513 8.06228C17.2463 8.1151 17.1665 8.20748 17.1296 8.3191C17.0927 8.43073 17.1016 8.55244 17.1544 8.65747L20.4454 15.2051L11.7353 16.7611L8.12486 9.57885L14.5704 3.51683L15.9121 6.18635C15.9382 6.23847 15.9743 6.28494 16.0183 6.32309C16.0624 6.36124 16.1136 6.39033 16.1689 6.40869C16.2242 6.42704 16.2826 6.43431 16.3407 6.43007C16.3989 6.42583 16.4556 6.41017 16.5077 6.38398C16.5597 6.3578 16.6061 6.3216 16.6442 6.27746C16.6823 6.23332 16.7113 6.1821 16.7295 6.12674C16.7478 6.07139 16.7549 6.01297 16.7505 5.95485C16.7462 5.89673 16.7304 5.84003 16.7041 5.78801L15.2442 2.88314L15.9984 2.17382L19.187 8.51706L20.1102 10.3539L20.1104 10.3542L22.3755 14.8603L21.356 15.0424Z" fill="#1081E8"/>
<path d="M21.0828 10.3143C21.5518 9.96318 21.8823 9.45828 22.0165 8.88801C22.1508 8.31773 22.0801 7.71841 21.817 7.19496C21.5539 6.67151 21.1151 6.25728 20.5773 6.02477C20.0396 5.79226 19.4372 5.7563 18.8756 5.92317L16.5237 1.24435C16.4928 1.18266 16.4478 1.12905 16.3925 1.0878C16.3372 1.04655 16.2729 1.01881 16.205 1.00678C16.137 0.99475 16.0672 0.99877 16.001 1.01852C15.9349 1.03827 15.8743 1.07319 15.824 1.12052L7.32335 9.11538L2.38735 11.5962C1.79064 11.8971 1.33763 12.4223 1.12772 13.0568C0.917807 13.6912 0.968141 14.383 1.26767 14.9804L3.3093 19.042C3.45758 19.338 3.66283 19.6019 3.91328 19.8185C4.16374 20.0351 4.45448 20.2001 4.76883 20.3041C5.08319 20.4082 5.41498 20.4491 5.74519 20.4247C6.07541 20.4002 6.39755 20.3108 6.69315 20.1616L6.94093 20.0371L8.47904 23.0975C8.70944 23.5572 9.05022 23.9527 9.47088 24.2485C9.89155 24.5443 10.379 24.7312 10.8896 24.7925L12.5779 24.9968C12.5957 24.9989 12.6136 25 12.6316 25C12.7162 25 12.7991 24.9757 12.8705 24.93C12.9418 24.8843 12.9985 24.8191 13.0339 24.7422L13.6733 23.3564C13.7189 23.2575 13.7264 23.1452 13.6945 23.041C13.6626 22.9368 13.5935 22.848 13.5004 22.7915L12.1735 21.9876C12.0087 21.8877 11.8798 21.7382 11.8049 21.5607C11.73 21.3831 11.713 21.1865 11.7564 20.9987L12.0104 19.9045C12.0246 19.8432 12.0257 19.7797 12.0135 19.718C12.0013 19.6563 11.9761 19.5979 11.9396 19.5467C11.9031 19.4955 11.8561 19.4527 11.8018 19.4211C11.7474 19.3894 11.687 19.3697 11.6245 19.3632L10.2138 19.2166L9.88303 18.5584L11.6289 17.6809L23.1165 15.6287C23.1845 15.6166 23.2487 15.5888 23.3041 15.5475C23.3594 15.5062 23.4043 15.4525 23.4352 15.3908C23.4661 15.329 23.4822 15.2609 23.4821 15.1918C23.482 15.1228 23.4657 15.0547 23.4346 14.9931L21.0828 10.3143ZM21.0244 7.59205C21.1814 7.90548 21.2322 8.26144 21.1693 8.6063C21.1064 8.95115 20.9331 9.2662 20.6755 9.50397L19.2828 6.73332C19.6269 6.66836 19.9829 6.71699 20.297 6.87187C20.6111 7.02676 20.8664 7.27951 21.0244 7.59207V7.59205ZM10.1575 15.5966L7.54928 16.9077L7.51263 16.8956L7.22601 16.3252C7.2227 16.3186 7.22212 16.311 7.22439 16.3041C7.22666 16.2971 7.23159 16.2913 7.23812 16.2879L9.84608 14.9772L10.1575 15.5966ZM6.29482 19.3696C5.90767 19.5641 5.45911 19.5969 5.04778 19.4608C4.63645 19.3246 4.29602 19.0307 4.10136 18.6436L2.05974 14.582C1.86573 14.1947 1.8332 13.7463 1.96929 13.3351C2.10537 12.9239 2.39896 12.5834 2.78569 12.3883L7.38303 10.0776L9.44782 14.185L6.83979 15.4959C6.62343 15.6051 6.45919 15.7956 6.38306 16.0256C6.30693 16.2557 6.32513 16.5066 6.43367 16.7232L6.7203 17.2936C6.77393 17.4011 6.84837 17.4969 6.93929 17.5754C7.03021 17.654 7.13581 17.7137 7.24997 17.7511C7.34289 17.782 7.44014 17.7978 7.53805 17.7979C7.68038 17.7977 7.8207 17.7641 7.94764 17.6997L10.5557 16.3889L10.8924 17.0587L6.29482 19.3696ZM9.53059 19.8317C9.56394 19.8982 9.6135 19.9552 9.6747 19.9975C9.73589 20.0397 9.80674 20.0659 9.88072 20.0736L11.033 20.1934L10.8924 20.7987C10.807 21.1685 10.8404 21.5558 10.9879 21.9054C11.1354 22.2551 11.3895 22.5493 11.7139 22.7462L12.702 23.3449L12.364 24.0778L10.9963 23.9121C10.6309 23.8682 10.2821 23.7345 9.98102 23.5228C9.67995 23.3111 9.43603 23.0282 9.27107 22.6992L7.73309 19.639L9.09083 18.9566L9.53059 19.8317ZM21.356 15.0424L17.9465 8.25914C17.8937 8.1541 17.8013 8.07436 17.6897 8.03744C17.578 8.00052 17.4563 8.00945 17.3513 8.06228C17.2463 8.1151 17.1665 8.20748 17.1296 8.3191C17.0927 8.43073 17.1016 8.55244 17.1544 8.65747L20.4454 15.2051L11.7353 16.7611L8.12486 9.57885L14.5704 3.51683L15.9121 6.18635C15.9382 6.23847 15.9743 6.28494 16.0183 6.32309C16.0624 6.36124 16.1136 6.39033 16.1689 6.40869C16.2242 6.42704 16.2826 6.43431 16.3407 6.43007C16.3989 6.42583 16.4556 6.41017 16.5077 6.38398C16.5597 6.3578 16.6061 6.3216 16.6442 6.27746C16.6823 6.23332 16.7113 6.1821 16.7295 6.12674C16.7478 6.07139 16.7549 6.01297 16.7505 5.95485C16.7462 5.89673 16.7304 5.84003 16.7041 5.78801L15.2442 2.88314L15.9984 2.17382L19.187 8.51706L20.1102 10.3539L20.1104 10.3542L22.3755 14.8603L21.356 15.0424Z" stroke="#1081E8" stroke-width="0.6" mask="url(#path-1-outside-1_268_2730)"/>
<path d="M23.9292 1.92692L24.0169 1.80524C24.1446 1.89726 24.2304 2.03621 24.2557 2.19154C24.2809 2.34686 24.2433 2.50584 24.1513 2.6335L24.0296 2.5458L24.1513 2.63351L22.2574 5.26113L23.9292 1.92692ZM23.9292 1.92692L24.0169 1.80523C23.8892 1.71323 23.7303 1.67572 23.5749 1.70093C23.4196 1.72614 23.2807 1.81201 23.1887 1.93966L21.2947 4.56731C21.2489 4.63051 21.2161 4.70211 21.1981 4.77801C21.1801 4.85392 21.1772 4.93263 21.1896 5.00965C21.202 5.08667 21.2295 5.16048 21.2705 5.22687C21.3115 5.29325 21.3652 5.3509 21.4284 5.39651C21.4917 5.44212 21.5634 5.47481 21.6393 5.49269C21.7153 5.51058 21.794 5.51331 21.871 5.50074C21.948 5.48816 22.0217 5.46052 22.088 5.41941C22.1543 5.37835 22.2117 5.32465 22.2572 5.26137L23.9292 1.92692ZM23.6315 7.99475V7.99476L26.8704 8.04268L26.8705 8.04268L26.8682 8.19266C26.9853 8.19437 27.0969 8.24229 27.1787 8.32596C27.2606 8.40964 27.306 8.52228 27.3051 8.63932C27.3043 8.75637 27.2571 8.86832 27.1741 8.95076L23.6315 7.99475ZM23.6315 7.99475H23.6293M23.6315 7.99475H23.6293M26.8615 9.2294H26.855H26.8527V9.22938L23.6138 9.18146L23.6138 9.18146L23.616 9.03148L26.8615 9.2294ZM26.8615 9.2294C26.8616 9.2294 26.8616 9.2294 26.8616 9.2294H26.8615ZM23.6293 7.99475H23.6227M23.6293 7.99475H23.6227M23.6227 7.99475C23.6227 7.99475 23.6227 7.99475 23.6227 7.99475H23.6227ZM4.09668 12.3538C3.98778 12.4085 3.89757 12.4943 3.83744 12.6004C3.77731 12.7064 3.74997 12.8279 3.75887 12.9494C3.76778 13.071 3.81254 13.1872 3.88748 13.2833C3.96243 13.3795 4.06419 13.4512 4.17991 13.4895C4.29563 13.5278 4.42011 13.5309 4.5376 13.4985C4.65509 13.466 4.76032 13.3994 4.83999 13.3072C4.91965 13.2149 4.97017 13.1011 4.98515 12.9802C5.00014 12.8592 4.97892 12.7365 4.92417 12.6276C4.88783 12.5553 4.83759 12.4908 4.77633 12.4379C4.71507 12.385 4.64399 12.3447 4.56715 12.3193C4.49031 12.2939 4.40921 12.2838 4.32849 12.2897C4.24776 12.2956 4.169 12.3174 4.09668 12.3538ZM22.8982 6.93218C23.003 7.01493 23.1326 7.05993 23.2661 7.0599L23.465 6.86256L23.5324 6.99658L23.5326 6.9965C23.5327 6.99646 23.5327 6.99642 23.5328 6.99638L26.8655 5.32124L26.8655 5.32123C26.9351 5.28622 26.9971 5.23785 27.048 5.17887C27.0989 5.1199 27.1377 5.05147 27.1622 4.9775C27.1867 4.90353 27.1963 4.82546 27.1906 4.74776C27.1849 4.67005 27.164 4.59423 27.129 4.52463C27.094 4.45503 27.0456 4.393 26.9866 4.34209C26.9276 4.29117 26.8592 4.25238 26.7852 4.22791C26.7113 4.20345 26.6332 4.19379 26.5555 4.19949C26.4778 4.2052 26.402 4.22615 26.3324 4.26116L22.9993 5.93648L22.9993 5.9365C22.88 5.99653 22.7844 6.09505 22.728 6.21614C22.6717 6.33722 22.6578 6.47378 22.6887 6.60373C22.7196 6.73367 22.7934 6.84939 22.8982 6.93218ZM6.42404 11.8737C6.3693 11.7648 6.28349 11.6746 6.17746 11.6144C6.07144 11.5543 5.94996 11.5269 5.82839 11.5358C5.70683 11.5447 5.59063 11.5895 5.49449 11.6644C5.39835 11.7394 5.3266 11.8411 5.28829 11.9568C5.24999 12.0726 5.24687 12.197 5.27932 12.3145C5.31176 12.432 5.37832 12.5373 5.47058 12.6169C5.56283 12.6966 5.67664 12.7471 5.79761 12.7621C5.91858 12.7771 6.04128 12.7559 6.15019 12.7011C6.29622 12.6277 6.40712 12.4993 6.45847 12.3441C6.50983 12.189 6.49744 12.0197 6.42404 11.8737Z" fill="#1081E8" stroke="#1081E8" stroke-width="0.3"/>
</svg>
