<svg width="20" height="18" viewBox="0 0 20 18" fill="none" xmlns="http://www.w3.org/2000/svg">
<path d="M6.99951 0C4.23809 0 1.99951 2.23858 1.99951 5C1.99951 7.76142 4.23809 10 6.99951 10C9.76093 10 11.9995 7.76142 11.9995 5C11.9995 2.23858 9.76093 0 6.99951 0ZM3.99951 5C3.99951 3.34315 5.34266 2 6.99951 2C8.65637 2 9.99951 3.34315 9.99951 5C9.99951 6.65685 8.65637 8 6.99951 8C5.34266 8 3.99951 6.65685 3.99951 5Z" fill="#605B6A"/>
<path d="M14.9079 5.21828C14.6266 5.07484 14.3153 5.00006 13.9995 5.00006V3.00006C14.6311 3.00006 15.2537 3.14956 15.8164 3.43645C15.8784 3.46805 15.9394 3.50121 15.9995 3.5359C16.4849 3.81614 16.9067 4.19569 17.2368 4.65055C17.6078 5.16172 17.8524 5.75347 17.9508 6.37737C18.0491 7.00126 17.9982 7.63958 17.8024 8.24005C17.6066 8.84053 17.2714 9.38611 16.8242 9.83213C16.377 10.2782 15.8306 10.6119 15.2296 10.8062C14.6948 10.979 14.1303 11.037 13.5731 10.9772C13.5041 10.9698 13.4352 10.9606 13.3665 10.9496C12.7433 10.8497 12.1526 10.6038 11.6426 10.2319L11.6416 10.2311L12.8206 8.61557C13.0756 8.80172 13.3712 8.92477 13.683 8.97474C13.9948 9.02471 14.314 9.00014 14.6145 8.90302C14.915 8.80591 15.1882 8.63903 15.4118 8.41602C15.6354 8.19302 15.803 7.92024 15.9009 7.62001C15.9988 7.31978 16.0242 7.00063 15.9751 6.68869C15.9259 6.37675 15.8036 6.08089 15.6181 5.82531C15.4326 5.56974 15.1893 5.36172 14.9079 5.21828Z" fill="#605B6A"/>
<path d="M17.9976 18C17.9976 17.475 17.8942 16.9551 17.6933 16.47C17.4924 15.9849 17.1979 15.5442 16.8266 15.1729C16.4553 14.8017 16.0146 14.5072 15.5295 14.3062C15.0444 14.1053 14.5245 14.0019 13.9995 14.0019V12C14.6816 12 15.3579 12.1163 15.9995 12.3431C16.0991 12.3783 16.1978 12.4162 16.2956 12.4567C17.0236 12.7583 17.685 13.2002 18.2422 13.7574C18.7993 14.3145 19.2413 14.9759 19.5428 15.7039C19.5833 15.8017 19.6212 15.9004 19.6564 16C19.8832 16.6416 19.9995 17.3179 19.9995 18H17.9976Z" fill="#605B6A"/>
<path d="M13.9995 18H11.9995C11.9995 15.2386 9.76093 13 6.99951 13C4.23809 13 1.99951 15.2386 1.99951 18H-0.000488281C-0.000488281 14.134 3.13352 11 6.99951 11C10.8655 11 13.9995 14.134 13.9995 18Z" fill="#605B6A"/>
</svg>
