<svg width="78" height="32" viewBox="0 0 78 32" fill="none" xmlns="http://www.w3.org/2000/svg">
<path d="M23.0667 6.12311H14.8766V31.3364H8.91633V6.12311H0.769171V0.806017H23.0667V6.12311ZM77.1803 22.5461C77.1803 25.3761 76.4085 27.5487 74.8648 29.0638C73.3497 30.5789 71.22 31.3364 68.4757 31.3364H64.3592C60.986 31.3364 58.5848 30.7504 57.1554 29.5784C55.7547 28.4063 55.0543 26.3767 55.0543 23.4894V0.806017H67.9611C70.877 0.806017 73.0638 1.53497 74.5217 2.99289C76.0082 4.4508 76.7515 6.50903 76.7515 9.16757C76.7515 10.7112 76.3513 12.0262 75.5509 13.1125C74.779 14.1988 73.9214 14.9706 72.9781 15.428C75.7795 16.743 77.1803 19.1157 77.1803 22.5461ZM67.4895 12.7266C69.6906 12.7266 70.7912 11.626 70.7912 9.42485C70.7912 7.22369 69.6906 6.12311 67.4895 6.12311H61.0146V12.7266H67.4895ZM71.22 22.2459C71.22 20.8738 70.977 19.8446 70.491 19.1586C70.0051 18.4439 69.1332 18.0866 67.8754 18.0866H61.0146V22.8891C61.0146 24.0612 61.3005 24.8759 61.8722 25.3333C62.4725 25.7906 63.4445 26.0193 64.788 26.0193H67.8754C70.1051 26.0193 71.22 24.7615 71.22 22.2459Z" fill="#1081E8"/>
<path d="M50.8652 31.3364H44.6476L42.9324 26.0622H32.6841L31.0118 31.3364H24.7942L34.5708 3.3788C34.9996 2.40686 35.4713 1.73508 35.9859 1.36345C36.529 0.991828 37.1865 0.806017 37.9583 0.806017C38.7302 0.806017 39.3448 0.977535 39.8022 1.32057C40.2881 1.66361 40.7169 2.34969 41.0886 3.3788L50.8652 31.3364ZM41.5602 21.0453L37.9583 8.95318L34.1849 21.0453H41.5602Z" fill="#1C1C1C"/>
</svg>
