<svg width="62" height="78" viewBox="0 0 62 78" fill="none" xmlns="http://www.w3.org/2000/svg">
<path d="M40.186 32.37L30.9993 41.5567L21.7694 32.37L15.6593 38.48L24.8894 47.6667L15.7027 56.8533L21.8127 62.9633L30.9993 53.7767L40.186 62.9633L46.296 56.8533L37.1093 47.6667L46.296 38.48L40.186 32.37ZM46.166 4.33333L41.8327 0H20.166L15.8327 4.33333H0.666016V13H61.3327V4.33333H46.166ZM4.99935 69.3333C4.99935 74.1 8.89935 78 13.666 78H48.3327C53.0993 78 56.9994 74.1 56.9994 69.3333V17.3333H4.99935V69.3333ZM13.666 26H48.3327V69.3333H13.666V26Z" fill="#EB5757"/>
</svg>
