<svg width="30" height="30" viewBox="0 0 30 30" fill="none" xmlns="http://www.w3.org/2000/svg">
<path d="M26.2953 13.8487C26.382 13.3766 26.4258 12.8951 26.4258 12.4102C26.4258 8.04826 22.8775 4.5 18.5156 4.5C15.7312 4.5 13.1504 5.98318 11.7325 8.34006C9.81844 7.71955 7.85461 7.98563 6.23672 9.10055C4.61883 10.2146 3.6532 11.9784 3.5751 13.9071C1.4482 14.9173 0 17.0682 0 19.4414C0 19.8534 0.0997852 20.2551 0.176133 20.6447L0.177012 20.6456C0.745254 23.5132 3.28324 25.5938 6.21094 25.5938H23.7891C27.1811 25.5938 30 22.8335 30 19.4414C30 17.0425 28.5321 14.8829 26.2953 13.8487Z" fill="#696969"/>
<path d="M16.0875 20.625H13.9125V16.125H12L15 13.125L18 16.125H16.0875V20.625Z" fill="#F7F7F7"/>
</svg>
