<svg width="24" height="24" viewBox="0 0 24 24" fill="none" xmlns="http://www.w3.org/2000/svg">
<path d="M11.9061 14.6249C12.6023 14.6249 13.27 14.3484 13.7623 13.8561C14.2546 13.3638 14.5311 12.6961 14.5311 11.9999C14.5311 11.9231 14.5276 11.8469 14.5211 11.7717L11.6779 14.6149C11.7531 14.6214 11.829 14.6249 11.9061 14.6249ZM20.5949 3.88026L19.5936 2.87995C19.5585 2.84481 19.5108 2.82507 19.4611 2.82507C19.4114 2.82507 19.3637 2.84481 19.3286 2.87995L16.7664 5.44284C15.3529 4.72049 13.7641 4.35932 11.9999 4.35932C7.4952 4.35932 4.13427 6.70542 1.91708 11.3976C1.82796 11.5863 1.78174 11.7924 1.78174 12.0011C1.78174 12.2098 1.82796 12.4159 1.91708 12.6046C2.80302 14.4707 3.86981 15.9664 5.11747 17.0917L2.63802 19.5703C2.60288 19.6054 2.58314 19.6531 2.58314 19.7028C2.58314 19.7525 2.60288 19.8002 2.63802 19.8353L3.63856 20.8359C3.67372 20.871 3.7214 20.8908 3.7711 20.8908C3.82081 20.8908 3.86848 20.871 3.90364 20.8359L20.5949 4.14557C20.6123 4.12816 20.6262 4.10748 20.6356 4.08472C20.645 4.06196 20.6499 4.03756 20.6499 4.01292C20.6499 3.98828 20.645 3.96388 20.6356 3.94111C20.6262 3.91835 20.6123 3.89767 20.5949 3.88026ZM7.78114 11.9999C7.78108 11.2875 7.96556 10.5871 8.31661 9.96711C8.66767 9.34711 9.17333 8.82861 9.78433 8.46212C10.3953 8.09564 11.0908 7.89366 11.8031 7.87586C12.5154 7.85806 13.2201 8.02506 13.8486 8.36057L12.7091 9.5001C12.2495 9.35295 11.7583 9.33523 11.2894 9.44888C10.8204 9.56253 10.3918 9.80317 10.0506 10.1444C9.70936 10.4856 9.46873 10.9142 9.35508 11.3832C9.24142 11.8521 9.25915 12.3434 9.4063 12.8029L8.26677 13.9424C7.94699 13.345 7.78014 12.6776 7.78114 11.9999Z" fill="#5E5E6C"/>
<path d="M22.0826 11.3953C21.2576 9.65779 20.2756 8.24099 19.1367 7.1449L15.7584 10.5234C16.0432 11.2678 16.1063 12.0788 15.9402 12.8583C15.774 13.6378 15.3857 14.3525 14.8221 14.9161C14.2585 15.4797 13.5438 15.868 12.7643 16.0341C11.9848 16.2003 11.1738 16.1372 10.4294 15.8524L7.56396 18.7179C8.89334 19.333 10.3719 19.6406 11.9997 19.6406C16.5044 19.6406 19.8654 17.2945 22.0826 12.6023C22.1717 12.4136 22.2179 12.2075 22.2179 11.9988C22.2179 11.7901 22.1717 11.584 22.0826 11.3953Z" fill="#5E5E6C"/>
</svg>
