<svg width="30" height="30" viewBox="0 0 30 30" fill="none" xmlns="http://www.w3.org/2000/svg">
<rect x="1.875" y="1.875" width="26.25" height="26.25" rx="6" fill="url(#paint0_radial_2885_6757)"/>
<rect x="1.875" y="1.875" width="26.25" height="26.25" rx="6" fill="url(#paint1_radial_2885_6757)"/>
<rect x="1.875" y="1.875" width="26.25" height="26.25" rx="6" fill="url(#paint2_radial_2885_6757)"/>
<path d="M21.5625 9.84375C21.5625 10.6204 20.9329 11.25 20.1562 11.25C19.3796 11.25 18.75 10.6204 18.75 9.84375C18.75 9.0671 19.3796 8.4375 20.1562 8.4375C20.9329 8.4375 21.5625 9.0671 21.5625 9.84375Z" fill="white"/>
<path fill-rule="evenodd" clip-rule="evenodd" d="M15 19.6875C17.5888 19.6875 19.6875 17.5888 19.6875 15C19.6875 12.4112 17.5888 10.3125 15 10.3125C12.4112 10.3125 10.3125 12.4112 10.3125 15C10.3125 17.5888 12.4112 19.6875 15 19.6875ZM15 17.8125C16.5533 17.8125 17.8125 16.5533 17.8125 15C17.8125 13.4467 16.5533 12.1875 15 12.1875C13.4467 12.1875 12.1875 13.4467 12.1875 15C12.1875 16.5533 13.4467 17.8125 15 17.8125Z" fill="white"/>
<path fill-rule="evenodd" clip-rule="evenodd" d="M5.625 14.625C5.625 11.4747 5.625 9.89956 6.23809 8.6963C6.77738 7.63789 7.63789 6.77738 8.6963 6.23809C9.89956 5.625 11.4747 5.625 14.625 5.625H15.375C18.5253 5.625 20.1004 5.625 21.3037 6.23809C22.3621 6.77738 23.2226 7.63789 23.7619 8.6963C24.375 9.89956 24.375 11.4747 24.375 14.625V15.375C24.375 18.5253 24.375 20.1004 23.7619 21.3037C23.2226 22.3621 22.3621 23.2226 21.3037 23.7619C20.1004 24.375 18.5253 24.375 15.375 24.375H14.625C11.4747 24.375 9.89956 24.375 8.6963 23.7619C7.63789 23.2226 6.77738 22.3621 6.23809 21.3037C5.625 20.1004 5.625 18.5253 5.625 15.375V14.625ZM14.625 7.5H15.375C16.9811 7.5 18.0729 7.50146 18.9168 7.57041C19.7388 7.63757 20.1592 7.75931 20.4525 7.90873C21.1581 8.26825 21.7317 8.84193 22.0913 9.54754C22.2407 9.84079 22.3624 10.2612 22.4296 11.0832C22.4985 11.9271 22.5 13.0189 22.5 14.625V15.375C22.5 16.9811 22.4985 18.0729 22.4296 18.9168C22.3624 19.7388 22.2407 20.1592 22.0913 20.4525C21.7317 21.1581 21.1581 21.7317 20.4525 22.0913C20.1592 22.2407 19.7388 22.3624 18.9168 22.4296C18.0729 22.4985 16.9811 22.5 15.375 22.5H14.625C13.0189 22.5 11.9271 22.4985 11.0832 22.4296C10.2612 22.3624 9.84079 22.2407 9.54754 22.0913C8.84193 21.7317 8.26825 21.1581 7.90873 20.4525C7.75931 20.1592 7.63757 19.7388 7.57041 18.9168C7.50146 18.0729 7.5 16.9811 7.5 15.375V14.625C7.5 13.0189 7.50146 11.9271 7.57041 11.0832C7.63757 10.2612 7.75931 9.84079 7.90873 9.54754C8.26825 8.84193 8.84193 8.26825 9.54754 7.90873C9.84079 7.75931 10.2612 7.63757 11.0832 7.57041C11.9271 7.50146 13.0189 7.5 14.625 7.5Z" fill="white"/>
<defs>
<radialGradient id="paint0_radial_2885_6757" cx="0" cy="0" r="1" gradientUnits="userSpaceOnUse" gradientTransform="translate(11.25 21.5625) rotate(-55.3758) scale(23.9246)">
<stop stop-color="#B13589"/>
<stop offset="0.79309" stop-color="#C62F94"/>
<stop offset="1" stop-color="#8A3AC8"/>
</radialGradient>
<radialGradient id="paint1_radial_2885_6757" cx="0" cy="0" r="1" gradientUnits="userSpaceOnUse" gradientTransform="translate(10.3125 29.0625) rotate(-65.1363) scale(21.1821)">
<stop stop-color="#E0E8B7"/>
<stop offset="0.444662" stop-color="#FB8A2E"/>
<stop offset="0.71474" stop-color="#E2425C"/>
<stop offset="1" stop-color="#E2425C" stop-opacity="0"/>
</radialGradient>
<radialGradient id="paint2_radial_2885_6757" cx="0" cy="0" r="1" gradientUnits="userSpaceOnUse" gradientTransform="translate(0.468752 2.8125) rotate(-8.1301) scale(36.4602 7.79846)">
<stop offset="0.156701" stop-color="#406ADC"/>
<stop offset="0.467799" stop-color="#6A45BE"/>
<stop offset="1" stop-color="#6A45BE" stop-opacity="0"/>
</radialGradient>
</defs>
</svg>
