<svg width="198" height="65" viewBox="0 0 198 65" fill="none" xmlns="http://www.w3.org/2000/svg">
<path d="M115.144 25.7069L115.17 27.7481C115.1 29.0382 114.942 30.125 114.696 31.0086C114.451 31.8922 113.968 32.6963 113.248 33.4209C112.055 34.6226 110.317 35.2234 108.035 35.2234C105.35 35.2234 103.507 34.87 102.507 34.1631C101.506 33.4386 101.006 32.1397 101.006 30.2664V16.3495H108.299C110.405 16.3495 112.055 16.9503 113.248 18.1521C114.214 19.124 114.784 20.3081 114.96 21.7042C115.083 22.6938 115.144 24.0281 115.144 25.7069ZM110.695 30.77C111.028 30.3636 111.239 29.8069 111.326 29.1C111.432 28.3755 111.484 27.2532 111.484 25.7334C111.484 24.2136 111.432 23.1179 111.326 22.4464C111.239 21.7572 111.028 21.2093 110.695 20.8029C110.063 20.0253 109.15 19.6365 107.956 19.6365H104.665V30.0808C104.665 30.7877 104.902 31.2737 105.376 31.5388C105.85 31.8039 106.693 31.9364 107.904 31.9364C109.133 31.9364 110.063 31.5476 110.695 30.77ZM132.104 24.9117V26.3431C132.104 29.5065 131.507 31.8039 130.313 33.2353C129.137 34.6668 127.242 35.3825 124.627 35.3825C122.012 35.3825 120.116 34.6668 118.94 33.2353C117.781 31.8039 117.202 29.48 117.202 26.2636V24.8852C117.202 21.9516 117.79 19.7691 118.966 18.3376C120.16 16.9062 122.038 16.1904 124.6 16.1904C127.18 16.1904 129.076 16.915 130.287 18.3641C131.498 19.8133 132.104 21.9958 132.104 24.9117ZM128.444 26.2636V25.2828C128.444 23.5863 128.234 22.2343 127.812 21.227C127.321 20.0607 126.268 19.4775 124.653 19.4775C123.021 19.4775 121.959 20.0607 121.467 21.227C121.064 22.1813 120.862 23.5333 120.862 25.2828V26.2636C120.862 28.5433 121.178 30.0808 121.81 30.8761C122.055 31.2119 122.415 31.5034 122.889 31.7508C123.381 31.9806 123.96 32.0955 124.627 32.0955C125.311 32.0955 125.89 31.9806 126.364 31.7508C126.838 31.5211 127.207 31.2384 127.47 30.9026C127.733 30.5668 127.935 30.125 128.076 29.5772C128.321 28.7112 128.444 27.6067 128.444 26.2636ZM146.862 35.2234H141.281C139.174 35.2234 137.647 34.817 136.7 34.0041C135.769 33.1735 135.304 31.8304 135.304 29.9748V16.3495H138.964V29.9748C138.964 30.717 139.13 31.2295 139.464 31.5123C139.797 31.795 140.403 31.9364 141.281 31.9364H146.862V35.2234ZM161.337 35.2234H155.756C153.649 35.2234 152.122 34.817 151.175 34.0041C150.244 33.1735 149.779 31.8304 149.779 29.9748V16.3495H153.439V29.9748C153.439 30.717 153.606 31.2295 153.939 31.5123C154.273 31.795 154.878 31.9364 155.756 31.9364H161.337V35.2234ZM178.471 35.2234H174.654L173.601 31.9629H167.308L166.282 35.2234H162.464L168.467 17.94C168.73 17.3391 169.02 16.9238 169.336 16.6941C169.669 16.4643 170.073 16.3495 170.547 16.3495C171.021 16.3495 171.398 16.4555 171.679 16.6676C171.977 16.8796 172.24 17.3038 172.469 17.94L178.471 35.2234ZM172.758 28.8614L170.547 21.3861L168.23 28.8614H172.758ZM195.234 35.2234H190.996L187.336 28.2252H184.703V35.2234H181.044V20.4053C181.044 18.9915 181.368 17.9665 182.018 17.3303C182.667 16.6764 183.755 16.3495 185.282 16.3495H188.389C190.25 16.3495 191.724 16.9238 192.812 18.0725C193.918 19.2036 194.471 20.6438 194.471 22.3934C194.471 23.6658 194.137 24.7703 193.47 25.7069C192.821 26.6259 192.014 27.2621 191.048 27.6155L195.234 35.2234ZM188.152 25.1503C188.924 25.1503 189.556 24.8852 190.048 24.355C190.557 23.8072 190.811 23.1356 190.811 22.3404C190.811 21.5274 190.566 20.8736 190.074 20.3788C189.6 19.8839 188.96 19.6365 188.152 19.6365H186.336C185.247 19.6365 184.703 20.1932 184.703 21.3065V25.1503H188.152Z" fill="#1E266D"/>
<path d="M102.707 49.0223H101.714C101.109 49.0223 100.647 48.8411 100.328 48.479C100.017 48.117 99.8619 47.6849 99.8619 47.1826V43.4787H99.1875V42.2564H99.8619V40.8737H101.456V42.2564H102.584V43.4787H101.456V47.0839C101.456 47.4706 101.64 47.6642 102.008 47.6642H102.707V49.0223ZM115.65 45.8739H111.567C111.567 46.5159 111.665 46.9851 111.861 47.2814C112.066 47.5777 112.47 47.7259 113.075 47.7259C113.468 47.7259 113.758 47.6024 113.946 47.3555C114.134 47.1002 114.228 46.8577 114.228 46.6271H115.663C115.663 47.5076 115.426 48.154 114.951 48.5654C114.485 48.9769 113.864 49.1828 113.088 49.1828C112.319 49.1828 111.722 49.0716 111.297 48.8494C110.423 48.3966 109.985 47.195 109.985 45.2443C109.985 44.0837 110.234 43.2358 110.733 42.7009C111.232 42.1577 111.992 41.8861 113.014 41.8861C114.788 41.8861 115.675 42.8778 115.675 44.8615C115.675 45.0754 115.667 45.4131 115.65 45.8739ZM111.604 44.7751H114.228C114.228 44.2319 114.126 43.8368 113.921 43.5899C113.717 43.3429 113.402 43.2195 112.977 43.2195C112.56 43.2195 112.225 43.3469 111.972 43.6022C111.726 43.8491 111.604 44.2402 111.604 44.7751ZM128.855 49.0223H127.065L125.826 46.8616L124.661 49.0223H122.748L125.017 45.4295L122.834 41.9725H124.625L125.851 44.0096L127.04 41.9725H128.831L126.648 45.4295L128.855 49.0223ZM139.331 49.0223H138.338C137.733 49.0223 137.271 48.8411 136.952 48.479C136.642 48.117 136.487 47.6849 136.487 47.1826V43.4787H135.812V42.2564H136.487V40.8737H138.081V42.2564H139.209V43.4787H138.081V47.0839C138.081 47.4706 138.265 47.6642 138.632 47.6642H139.331V49.0223ZM159.834 46.4419L161.281 46.4295C161.273 46.4952 161.264 46.6147 161.256 46.7876C161.248 46.9604 161.24 47.0799 161.231 47.1456C161.231 47.2033 161.224 47.2978 161.207 47.4296C161.191 47.5614 161.17 47.6602 161.146 47.7259C161.129 47.7836 161.105 47.8617 161.072 47.9605C160.925 48.3886 160.525 48.7259 159.87 48.9729C159.453 49.121 159.016 49.1951 158.558 49.1951C158.109 49.1951 157.7 49.121 157.332 48.9729C156.964 48.8247 156.674 48.6355 156.461 48.4049C155.979 47.8947 155.738 46.9397 155.738 45.5406C155.738 44.1331 155.979 43.1741 156.461 42.6639C156.674 42.4333 156.964 42.2441 157.332 42.0959C157.7 41.9478 158.109 41.8737 158.558 41.8737C159.441 41.8737 160.112 42.0959 160.569 42.5404C161.027 42.9849 161.256 43.6022 161.256 44.3924H159.809C159.809 44.0303 159.719 43.7627 159.539 43.5899C159.36 43.4087 159.024 43.3182 158.534 43.3182C158.052 43.3182 157.729 43.4704 157.565 43.7751C157.41 44.0797 157.332 44.5365 157.332 45.1455V45.7875C157.332 46.7669 157.52 47.3678 157.896 47.5901C158.068 47.6972 158.293 47.7506 158.571 47.7506C158.849 47.7506 159.073 47.7259 159.245 47.6765C159.425 47.6188 159.552 47.5243 159.625 47.3925C159.707 47.2607 159.76 47.1333 159.785 47.0098C159.809 46.878 159.826 46.6888 159.834 46.4419ZM170.521 49.0223L168.927 49.0346V39.7378H170.521V49.0223ZM183.846 49.0223H182.656L182.288 48.1827L180.326 49.0963C179.779 49.0963 179.3 48.8948 178.892 48.4914C178.491 48.0799 178.291 47.483 178.291 46.7011V41.9725H179.885V46.3554C179.885 47.1373 180.195 47.5283 180.817 47.5283L182.252 46.7505V41.9725H183.846V49.0223ZM195.007 49.0346L193.622 49.0223C193.008 49.0223 192.543 48.8411 192.224 48.479C191.913 48.117 191.758 47.6849 191.758 47.1826V39.7378H193.352V42.8491L195.252 41.9601C195.98 41.9601 196.516 42.1577 196.859 42.5528C197.161 42.9068 197.349 43.4787 197.423 44.2689C197.447 44.5983 197.46 45.0057 197.46 45.4912C197.46 47.8533 196.642 49.0346 195.007 49.0346ZM193.756 47.6518H194.541C195.424 47.6518 195.866 46.9317 195.866 45.4912C195.866 44.7588 195.796 44.2482 195.657 43.9602C195.527 43.6723 195.236 43.5281 194.787 43.5281L193.352 44.3059V47.0839C193.352 47.4132 193.487 47.6024 193.756 47.6518Z" fill="#10D995"/>
<path d="M29.7389 31.684L29.7868 35.4028C29.6589 37.7533 29.3711 39.7335 28.9234 41.3432C28.4757 42.953 27.5963 44.4182 26.2852 45.7382C24.1107 47.9275 20.9449 49.0223 16.7877 49.0223C11.8951 49.0223 8.53735 48.3785 6.7146 47.0905C4.89185 45.7705 3.98047 43.404 3.98047 39.9909V14.6355H17.2674C21.1048 14.6355 24.1107 15.7302 26.2852 17.9196C28.044 19.6905 29.0833 21.8477 29.4031 24.3913C29.627 26.1943 29.7389 28.6253 29.7389 31.684ZM21.6324 40.9086C22.24 40.1681 22.6237 39.1539 22.7836 37.8659C22.9755 36.5459 23.0714 34.5013 23.0714 31.7323C23.0714 28.9633 22.9755 26.9671 22.7836 25.7436C22.6237 24.4879 22.24 23.4898 21.6324 22.7492C20.4812 21.3326 18.8183 20.6242 16.6438 20.6242H10.6479V39.6529C10.6479 40.9409 11.0796 41.8262 11.943 42.3091C12.8064 42.7921 14.3414 43.0336 16.5479 43.0336C18.7864 43.0336 20.4812 42.3251 21.6324 40.9086ZM80.2707 35.6926H86.4585C86.4585 40.0715 85.3715 43.4359 83.1967 45.7865C81.0223 48.137 77.9524 49.3121 73.987 49.3121C65.257 49.3121 60.8919 44.1444 60.8919 33.809V30.9113C60.8919 22.7653 63.1305 17.662 67.6074 15.6014C69.3663 14.7643 71.4927 14.3457 73.987 14.3457C77.6325 14.3457 80.5906 15.3599 82.8609 17.3884C85.1634 19.3846 86.3146 22.2823 86.3146 26.0817H80.0788C79.7272 24.182 79.1036 22.7492 78.2081 21.7833C77.313 20.8174 75.9057 20.3344 73.987 20.3344C71.7488 20.3344 70.0858 21.0428 68.9984 22.4594C68.2309 23.4576 67.7834 25.164 67.6553 27.5788C67.5915 28.3516 67.5594 29.398 67.5594 30.7181V33.7124C67.5594 37.4153 68.0712 39.9426 69.0943 41.2949C70.1496 42.6472 71.7805 43.3234 73.987 43.3234C76.2256 43.3234 77.7605 42.7115 78.5918 41.4881C79.4553 40.2324 80.015 38.3006 80.2707 35.6926Z" fill="#10D995"/>
<path d="M57.8102 20.6242H48.6484V49.0223H41.981V20.6242H32.8672V14.6355H57.8102V20.6242Z" fill="#1E266D"/>
</svg>
