<svg width="251" height="54" viewBox="0 0 251 54" fill="none" xmlns="http://www.w3.org/2000/svg">
<g clip-path="url(#clip0_33_453)">
<path d="M38.9109 9.13294H24.4687V53.5935H13.9585V9.13294H-0.408081V-0.243164H38.9109V9.13294ZM134.334 38.0928C134.334 43.0833 132.973 46.9143 130.251 49.586C127.579 52.2577 123.823 53.5935 118.984 53.5935H111.725C105.777 53.5935 101.543 52.5601 99.022 50.4934C96.5522 48.4266 95.3172 44.8476 95.3172 39.7563V-0.243164H118.077C123.219 -0.243164 127.075 1.04224 129.646 3.61314C132.267 6.18394 133.578 9.81344 133.578 14.5014C133.578 17.2235 132.872 19.5423 131.46 21.4578C130.099 23.3734 128.587 24.7344 126.924 25.541C131.864 27.8598 134.334 32.0437 134.334 38.0928ZM117.245 20.7773C121.127 20.7773 123.067 18.8366 123.067 14.9551C123.067 11.0736 121.127 9.13294 117.245 9.13294H105.827V20.7773H117.245ZM123.823 37.5635C123.823 35.1438 123.395 33.3291 122.538 32.1193C121.681 30.8591 120.144 30.229 117.926 30.229H105.827V38.6977C105.827 40.7644 106.332 42.2011 107.34 43.0076C108.398 43.8142 110.112 44.2175 112.481 44.2175H117.926C121.858 44.2175 123.823 41.9995 123.823 37.5635Z" fill="#1081E8"/>
<path d="M87.9302 53.5935H76.9662L73.9417 44.2931H55.8701L52.9212 53.5935H41.9573L59.1971 4.29364C59.9532 2.57974 60.785 1.39514 61.6923 0.739836C62.6501 0.0845357 63.8095 -0.243164 65.1705 -0.243164C66.5316 -0.243164 67.6154 0.0593361 68.4219 0.664236C69.2789 1.26914 70.035 2.47894 70.6903 4.29364L87.9302 53.5935ZM71.5221 35.4463L65.1705 14.1233L58.5166 35.4463H71.5221Z" fill="#1C1C1C"/>
<path d="M175.752 5.46442H167.826V29.8676H162.057V5.46442H154.171V0.318115H175.752V5.46442ZM199.711 29.8676H189.253C185.932 29.8676 183.594 29.3004 182.239 28.166C180.911 27.0039 180.247 24.9703 180.247 22.0652V0.318115H199.711V5.46442H186.015V12.3952H195.602L195.187 17.5415H186.015V21.6502C186.015 22.8122 186.278 23.6146 186.804 24.0573C187.33 24.5 188.284 24.7213 189.668 24.7213H199.711V29.8676ZM228.699 29.8676H221.561L215.377 19.5751L209.276 29.8676H202.138L212.057 14.7193L202.76 0.318115H209.857L215.377 9.86362L220.98 0.318115H228.035L218.738 14.7193L228.699 29.8676ZM251.137 5.46442H243.21V29.8676H237.441V5.46442H229.556V0.318115H251.137V5.46442Z" fill="#1C1C1C"/>
<path d="M167.508 51.8441H164.705L163.932 49.4665H159.312L158.559 51.8441H155.756L160.163 39.2411C160.356 38.803 160.569 38.5001 160.801 38.3326C161.046 38.1651 161.342 38.0813 161.69 38.0813C162.038 38.0813 162.315 38.1586 162.521 38.3133C162.74 38.4679 162.934 38.7772 163.101 39.2411L167.508 51.8441ZM163.314 47.205L161.69 41.754L159.989 47.205H163.314ZM203.966 47.8815C203.966 49.1573 203.618 50.1366 202.923 50.8196C202.24 51.5026 201.28 51.8441 200.042 51.8441H198.187C196.666 51.8441 195.584 51.5799 194.939 51.0516C194.308 50.5232 193.992 49.6083 193.992 48.3068V38.0813H199.81C201.125 38.0813 202.111 38.4099 202.768 39.0671C203.438 39.7244 203.773 40.6522 203.773 41.8506C203.773 42.5465 203.593 43.1393 203.232 43.629C202.884 44.1186 202.497 44.4666 202.072 44.6728C203.335 45.2655 203.966 46.3351 203.966 47.8815ZM199.598 43.455C200.59 43.455 201.086 42.9589 201.086 41.9666C201.086 40.9743 200.59 40.4782 199.598 40.4782H196.679V43.455H199.598ZM201.28 47.7462C201.28 47.1276 201.17 46.6637 200.951 46.3545C200.732 46.0323 200.339 45.8712 199.772 45.8712H196.679V48.0361C196.679 48.5645 196.808 48.9317 197.066 49.1379C197.336 49.3441 197.774 49.4472 198.38 49.4472H199.772C200.777 49.4472 201.28 48.8802 201.28 47.7462ZM226.876 38.0813V47.1276C226.876 48.6225 226.367 49.8016 225.349 50.665C224.344 51.5284 223.1 51.9601 221.618 51.9601C220.136 51.9601 218.886 51.5284 217.868 50.665C216.863 49.8016 216.361 48.6225 216.361 47.1276V38.0813H219.047V47.031C219.047 47.8815 219.279 48.5194 219.743 48.9446C220.22 49.357 220.845 49.5632 221.618 49.5632C222.392 49.5632 223.017 49.357 223.493 48.9446C223.97 48.5194 224.209 47.8815 224.209 47.031V38.0813H226.876ZM249.124 38.0813L244.987 46.1998V51.8441H242.32V46.1998L238.183 38.0813H241.102L243.673 43.629L246.205 38.0813H249.124Z" fill="#1081E8"/>
</g>
<defs>
<clipPath id="clip0_33_453">
<rect width="251" height="54" fill="white"/>
</clipPath>
</defs>
</svg>
