<svg width="40" height="31" viewBox="0 0 40 31" fill="none" xmlns="http://www.w3.org/2000/svg">
<g clip-path="url(#clip0_608:23852)">
<path d="M7.21384 30.8461V28.7943C7.21384 28.0077 6.73747 27.4948 5.92084 27.4948C5.51253 27.4948 5.07018 27.6316 4.76395 28.0761C4.52576 27.7 4.1855 27.4948 3.6751 27.4948C3.33484 27.4948 2.99458 27.5974 2.72237 27.9735V27.5632H2.00781V30.8461H2.72237V29.0337C2.72237 28.4523 3.0286 28.1787 3.50497 28.1787C3.98134 28.1787 4.21952 28.4865 4.21952 29.0337V30.8461H4.93408V29.0337C4.93408 28.4523 5.27434 28.1787 5.71668 28.1787C6.19305 28.1787 6.43124 28.4865 6.43124 29.0337V30.8461H7.21384ZM17.796 27.5632H16.6391V26.5714H15.9246V27.5632H15.2781V28.2129H15.9246V29.7176C15.9246 30.4699 16.2308 30.9145 17.0475 30.9145C17.3537 30.9145 17.694 30.8119 17.9321 30.6751L17.728 30.0596C17.5238 30.1964 17.2856 30.2306 17.1155 30.2306C16.7752 30.2306 16.6391 30.0254 16.6391 29.6834V28.2129H17.796V27.5632ZM23.8527 27.4948C23.4444 27.4948 23.1722 27.7 23.0021 27.9735V27.5632H22.2875V30.8461H23.0021V28.9995C23.0021 28.4523 23.2402 28.1445 23.6826 28.1445C23.8187 28.1445 23.9888 28.1787 24.1249 28.2129L24.3291 27.529C24.193 27.4948 23.9888 27.4948 23.8527 27.4948ZM14.6996 27.8367C14.3594 27.5974 13.883 27.4948 13.3726 27.4948C12.556 27.4948 12.0116 27.9051 12.0116 28.5549C12.0116 29.102 12.4199 29.4098 13.1344 29.5124L13.4747 29.5466C13.849 29.615 14.0531 29.7176 14.0531 29.8886C14.0531 30.128 13.7809 30.299 13.3046 30.299C12.8282 30.299 12.4539 30.128 12.2157 29.957L11.8755 30.5041C12.2497 30.7777 12.7601 30.9145 13.2705 30.9145C14.2233 30.9145 14.7677 30.4699 14.7677 29.8544C14.7677 29.273 14.3253 28.9653 13.6448 28.8627L13.3046 28.8285C12.9983 28.7943 12.7601 28.7259 12.7601 28.5207C12.7601 28.2813 12.9983 28.1445 13.3726 28.1445C13.7809 28.1445 14.1892 28.3155 14.3934 28.4181L14.6996 27.8367ZM33.6863 27.4948C33.278 27.4948 33.0058 27.7 32.8357 27.9735V27.5632H32.1211V30.8461H32.8357V28.9995C32.8357 28.4523 33.0739 28.1445 33.5162 28.1445C33.6523 28.1445 33.8224 28.1787 33.9585 28.2129L34.1627 27.529C34.0266 27.4948 33.8224 27.4948 33.6863 27.4948ZM24.5673 29.2046C24.5673 30.1964 25.2478 30.9145 26.3026 30.9145C26.779 30.9145 27.1192 30.8119 27.4595 30.5383L27.1192 29.957C26.847 30.1622 26.5748 30.2648 26.2686 30.2648C25.6901 30.2648 25.2818 29.8544 25.2818 29.2046C25.2818 28.5891 25.6901 28.1787 26.2686 28.1445C26.5748 28.1445 26.847 28.2471 27.1192 28.4523L27.4595 27.8709C27.1192 27.5974 26.779 27.4948 26.3026 27.4948C25.2478 27.4948 24.5673 28.2129 24.5673 29.2046ZM31.1684 29.2046V27.5632H30.4538V27.9735C30.2156 27.6658 29.8754 27.4948 29.433 27.4948C28.5143 27.4948 27.7998 28.2129 27.7998 29.2046C27.7998 30.1964 28.5143 30.9145 29.433 30.9145C29.9094 30.9145 30.2497 30.7435 30.4538 30.4357V30.8461H31.1684V29.2046ZM28.5484 29.2046C28.5484 28.6233 28.9226 28.1445 29.5351 28.1445C30.1136 28.1445 30.5219 28.5891 30.5219 29.2046C30.5219 29.786 30.1136 30.2648 29.5351 30.2648C28.9226 30.2306 28.5484 29.786 28.5484 29.2046ZM20.0077 27.4948C19.055 27.4948 18.3745 28.1787 18.3745 29.2046C18.3745 30.2306 19.055 30.9145 20.0418 30.9145C20.5181 30.9145 20.9945 30.7777 21.3688 30.4699L21.0285 29.957C20.7563 30.1622 20.4161 30.299 20.0758 30.299C19.6335 30.299 19.1911 30.0938 19.089 29.5124H21.5049V29.2388C21.5389 28.1787 20.9265 27.4948 20.0077 27.4948ZM20.0077 28.1103C20.4501 28.1103 20.7563 28.3839 20.8244 28.8969H19.1231C19.1911 28.4523 19.4973 28.1103 20.0077 28.1103ZM37.7355 29.2046V26.2637H37.0209V27.9735C36.7827 27.6658 36.4425 27.4948 36.0001 27.4948C35.0814 27.4948 34.3669 28.2129 34.3669 29.2046C34.3669 30.1964 35.0814 30.9145 36.0001 30.9145C36.4765 30.9145 36.8168 30.7435 37.0209 30.4357V30.8461H37.7355V29.2046ZM35.1154 29.2046C35.1154 28.6233 35.4897 28.1445 36.1022 28.1445C36.6806 28.1445 37.089 28.5891 37.089 29.2046C37.089 29.786 36.6806 30.2648 36.1022 30.2648C35.4897 30.2306 35.1154 29.786 35.1154 29.2046ZM11.2289 29.2046V27.5632H10.5144V27.9735C10.2762 27.6658 9.93595 27.4948 9.49361 27.4948C8.5749 27.4948 7.86034 28.2129 7.86034 29.2046C7.86034 30.1964 8.5749 30.9145 9.49361 30.9145C9.96997 30.9145 10.3102 30.7435 10.5144 30.4357V30.8461H11.2289V29.2046ZM8.57489 29.2046C8.57489 28.6233 8.94918 28.1445 9.56166 28.1445C10.1401 28.1445 10.5484 28.5891 10.5484 29.2046C10.5484 29.786 10.1401 30.2648 9.56166 30.2648C8.94918 30.2306 8.57489 29.786 8.57489 29.2046Z" fill="white"/>
<path d="M25.1792 2.6333H14.4609V21.989H25.1792V2.6333Z" fill="#FF5F00"/>
<path d="M15.1417 12.311C15.1417 8.37834 16.9791 4.89022 19.8033 2.63319C17.7277 0.991722 15.1077 0 12.2495 0C5.47824 0 0 5.50577 0 12.311C0 19.1163 5.47824 24.6221 12.2495 24.6221C15.1077 24.6221 17.7277 23.6304 19.8033 21.9889C16.9791 19.7661 15.1417 16.2437 15.1417 12.311Z" fill="#EB001B"/>
<path d="M39.6393 12.311C39.6393 19.1163 34.161 24.6221 27.3898 24.6221C24.5316 24.6221 21.9115 23.6304 19.8359 21.9889C22.6942 19.7319 24.4975 16.2437 24.4975 12.311C24.4975 8.37834 22.6601 4.89022 19.8359 2.63319C21.9115 0.991722 24.5316 0 27.3898 0C34.161 0 39.6393 5.53997 39.6393 12.311Z" fill="#F79E1B"/>
</g>
<defs>
<clipPath id="clip0_608:23852">
<rect width="39.68" height="31" fill="white"/>
</clipPath>
</defs>
</svg>
