<svg width="40" height="24" viewBox="0 0 40 24" fill="none" xmlns="http://www.w3.org/2000/svg">
<path d="M25.4087 2.56641H14.5933V21.4331H25.4087V2.56641Z" fill="#FF5F00"/>
<path d="M15.2799 12C15.2799 8.16667 17.134 4.76667 19.9838 2.56667C17.8894 0.966667 15.2456 0 12.3615 0C5.52887 0 0.000976562 5.36667 0.000976562 12C0.000976562 18.6333 5.52887 24 12.3615 24C15.2456 24 17.8894 23.0333 19.9838 21.4333C17.134 19.2667 15.2799 15.8333 15.2799 12Z" fill="#EB001B"/>
<path d="M40.0009 12C40.0009 18.6333 34.473 24 27.6404 24C24.7563 24 22.1125 23.0333 20.0181 21.4333C22.9022 19.2333 24.7219 15.8333 24.7219 12C24.7219 8.16667 22.8679 4.76667 20.0181 2.56667C22.1125 0.966667 24.7563 0 27.6404 0C34.473 0 40.0009 5.4 40.0009 12Z" fill="#F79E1B"/>
</svg>
