<svg width="28" height="14" viewBox="0 0 28 14" fill="none" xmlns="http://www.w3.org/2000/svg">
<path d="M20.667 13.6667H16.667V11H20.667C22.8761 11 24.667 9.20918 24.667 7.00004C24.667 4.7909 22.8761 3.00004 20.667 3.00004H16.667V0.333374H20.667C24.3489 0.333374 27.3337 3.31814 27.3337 7.00004C27.3337 10.6819 24.3489 13.6667 20.667 13.6667ZM11.3337 13.6667H7.33366C3.65176 13.6667 0.666992 10.6819 0.666992 7.00004C0.666992 3.31814 3.65176 0.333374 7.33366 0.333374H11.3337V3.00004H7.33366C5.12452 3.00004 3.33366 4.7909 3.33366 7.00004C3.33366 9.20918 5.12452 11 7.33366 11H11.3337V13.6667ZM20.667 8.33337H7.33366V5.66671H20.667V8.33337Z" fill="#1081E8"/>
</svg>
