<svg width="70" height="70" viewBox="0 0 70 70" fill="none" xmlns="http://www.w3.org/2000/svg">
<path d="M34.9923 69.9924C54.3223 69.9924 69.9924 54.3223 69.9924 34.9923C69.9924 15.6623 54.3223 -0.0078125 34.9923 -0.0078125C15.6623 -0.0078125 -0.0078125 15.6623 -0.0078125 34.9923C-0.0078125 54.3223 15.6623 69.9924 34.9923 69.9924Z" fill="#EF4C45"/>
<path d="M42.3658 69.1749C43.037 69.0447 43.7043 68.8949 44.3667 68.7257C45.4899 68.4117 46.5967 68.0418 47.6829 67.6174C48.7706 67.1964 49.8365 66.7214 50.8767 66.194C51.9172 65.6646 52.9305 65.0835 53.9129 64.4528C54.8942 63.822 55.8433 63.1425 56.7567 62.417C57.6717 61.6904 58.5497 60.9184 59.3875 60.104C60.2239 59.2916 61.0192 58.4379 61.7704 57.5461C62.5223 56.6535 63.229 55.7239 63.8879 54.7607C64.5467 53.7991 65.1571 52.8053 65.7167 51.7828C66.2764 50.7588 66.7845 49.7075 67.2392 48.6328C67.6943 47.5578 68.0954 46.4607 68.4408 45.3457C68.7367 44.3694 68.9897 43.3807 69.1992 42.3824L48.4033 21.5895C46.6459 19.8254 44.5572 18.4262 42.2572 17.4721C39.9572 16.5181 37.4913 16.0281 35.0013 16.0303C32.5107 16.0277 30.0443 16.5175 27.7437 17.4716C25.4432 18.4256 23.354 19.8251 21.5963 21.5895C19.8306 23.3478 18.43 25.4378 17.475 27.7393C16.52 30.0409 16.0293 32.5085 16.0313 35.0003C16.0298 37.4912 16.5206 39.9578 17.4757 42.2583C18.4307 44.5588 19.8311 46.6478 21.5963 48.4053L42.3658 69.172V69.1749Z" fill="#DF2209"/>
<path d="M35.003 16.0332C39.8505 16.0332 44.698 17.8853 48.408 21.5924C50.1712 23.3517 51.5701 25.4416 52.5246 27.7423C53.4791 30.043 53.9704 32.5094 53.9704 35.0003C53.9704 37.4911 53.4791 39.9575 52.5246 42.2583C51.5701 44.559 50.1712 46.6489 48.408 48.4082C46.6493 50.1716 44.56 51.5707 42.2598 52.5253C39.9595 53.4799 37.4935 53.9713 35.003 53.9713C32.5125 53.9713 30.0465 53.4799 27.7463 52.5253C25.446 51.5707 23.3567 50.1716 21.598 48.4082C19.6148 46.4348 18.0944 44.0456 17.1467 41.4132C16.199 38.7808 15.8475 35.9709 16.1176 33.1861C16.5387 28.8007 18.4781 24.7 21.6009 21.5924C23.3583 19.8283 25.4471 18.4291 27.7471 17.475C30.0471 16.521 32.513 16.031 35.003 16.0332ZM42.1984 26.3057C42.1955 26.3057 42.1897 26.3057 42.1868 26.3115C41.8098 26.3264 41.4529 26.485 41.1893 26.7549L34.9972 32.9382L28.8109 26.7549C28.6751 26.6161 28.5132 26.5055 28.3345 26.4294C28.1558 26.3534 27.9639 26.3133 27.7697 26.3115C26.6118 26.3057 25.9176 28.0149 26.7488 28.817L32.9351 35.0032L26.7488 41.1895C25.6318 42.2628 27.7405 44.3686 28.8109 43.2515L34.9972 37.0682L41.1893 43.2515C42.2626 44.3686 44.3684 42.2599 43.2514 41.1895L37.068 35.0032L43.2514 28.817C44.0972 28.0061 43.368 26.2678 42.1984 26.3057Z" fill="white"/>
</svg>
