<svg width="70" height="70" viewBox="0 0 70 70" fill="none" xmlns="http://www.w3.org/2000/svg">
<path d="M34.9995 12.8906C22.8087 12.8906 12.8906 22.8087 12.8906 34.9995C12.8906 47.1904 22.8087 57.1084 34.9995 57.1084C47.1903 57.1084 57.1084 47.1904 57.1084 34.9995C57.1084 22.8087 47.1903 12.8906 34.9995 12.8906V12.8906ZM31.1122 45.0042L22.5634 36.4554L25.475 33.5438L31.171 39.2397L44.5541 26.392L47.4057 29.3626L31.1122 45.0042Z" fill="#75C92F"/>
<path d="M70 35C70 31.9844 67.0124 29.4015 66.269 26.6203C65.4998 23.7426 66.7733 20.0163 65.3155 17.4967C63.8367 14.9409 59.9591 14.1894 57.8848 12.1152C55.8106 10.041 55.0591 6.16329 52.5033 4.68451C49.9837 3.22673 46.2574 4.50004 43.3797 3.73086C40.5984 2.98763 38.0156 0 35 0C31.9844 0 29.4016 2.98763 26.6203 3.731C23.7426 4.50018 20.0163 3.22673 17.4968 4.68451C14.941 6.16329 14.1895 10.0409 12.1154 12.1152C10.0412 14.1894 6.16343 14.9409 4.68465 17.4967C3.22686 20.0163 4.50031 23.7426 3.73114 26.6203C2.98763 29.4016 0 31.9844 0 35C0 38.0156 2.98763 40.5984 3.731 43.3797C4.50018 46.2574 3.22673 49.9837 4.68451 52.5032C6.16329 55.059 10.0409 55.8105 12.1152 57.8846C14.1894 59.9588 14.9409 63.8366 17.4967 65.3154C20.0163 66.7731 23.7426 65.4998 26.6203 66.269C29.4016 67.0124 31.9844 70 35 70C38.0156 70 40.5984 67.0124 43.3797 66.269C46.2574 65.4998 49.9837 66.7733 52.5032 65.3155C55.059 63.8367 55.8105 59.9591 57.8846 57.8848C59.9588 55.8106 63.8366 55.0591 65.3154 52.5033C66.7731 49.9837 65.4997 46.2574 66.2689 43.3797C67.0124 40.5984 70 38.0156 70 35V35ZM35 61.2265C20.5387 61.2265 8.77347 49.4613 8.77347 35C8.77347 20.5387 20.5387 8.77347 35 8.77347C49.4613 8.77347 61.2265 20.5387 61.2265 35C61.2265 49.4613 49.4613 61.2265 35 61.2265Z" fill="#75C92F"/>
</svg>
